<svg xmlns="http://www.w3.org/2000/svg" width="420" height="1572" viewBox="0 0 420 1572" role="img" aria-labelledby="title desc">
<title id="title">Towk repository activity over the last 30 UTC days</title><desc id="desc">Daily commits, merged pull requests, closed issues, code movement and pull request flow for the default branch.</desc>
<defs><linearGradient id="accent" x1="0" y1="0" x2="1" y2="0"><stop offset="0%" stop-color="#43d8b0"/><stop offset="50%" stop-color="#4aa8ff"/><stop offset="100%" stop-color="#7867f2"/></linearGradient><linearGradient id="soft" x1="0" y1="0" x2="1" y2="1"><stop offset="0%" stop-color="#43d8b0" stop-opacity=".18"/><stop offset="100%" stop-color="#7867f2" stop-opacity=".12"/></linearGradient></defs><style>
.bg{fill:#fff;stroke:#d0d7de}.surface{fill:#f6f8fa;stroke:#d8dee4}.strong{fill:#eef7ff;stroke:#b6d8ff}.ink{fill:#162033}.muted{fill:#667085}.faint{fill:#98a2b3}.grid{stroke:#dfe5ec}.track{fill:#e7edf3}
.meta{font:750 11px -apple-system,BlinkMacSystemFont,"Segoe UI",sans-serif;letter-spacing:1.1px}.value{font:820 31px -apple-system,BlinkMacSystemFont,"Segoe UI",sans-serif}.label{font:720 13px -apple-system,BlinkMacSystemFont,"Segoe UI",sans-serif}.scope{font:520 10px -apple-system,BlinkMacSystemFont,"Segoe UI",sans-serif}.chart-title{font:760 14px -apple-system,BlinkMacSystemFont,"Segoe UI",sans-serif}.chart-subtitle{font:520 11px -apple-system,BlinkMacSystemFont,"Segoe UI",sans-serif}.small{font:540 10px -apple-system,BlinkMacSystemFont,"Segoe UI",sans-serif}.flow-value{font:780 17px -apple-system,BlinkMacSystemFont,"Segoe UI",sans-serif}
@media(prefers-color-scheme:dark){.bg{fill:#0d1117;stroke:#30363d}.surface{fill:#161b22;stroke:#30363d}.strong{fill:#10263a;stroke:#244d70}.ink{fill:#f0f6fc}.muted{fill:#a7b0bc}.faint{fill:#7d8590}.grid{stroke:#30363d}.track{fill:#27313d}}
</style><rect class="bg" x="1" y="1" width="418" height="1570" rx="22"/><rect x="0" y="0" width="420" height="8" rx="4" fill="url(#accent)"/><text class="meta" x="20" y="32" fill="#4aa8ff" style="font-size:9.5px">MAIN · LAST 30 UTC DAYS · UTC</text><text class="small faint" x="20" y="52">Refreshed 27 Jul 2026, 16:18</text><g><rect class="surface" x="20" y="72" width="185" height="86" rx="17"/><rect x="20" y="72" width="5" height="86" rx="3" fill="#43d8b0"/><text class="value ink" x="37" y="108" style="font-size:27px">130</text><text class="label ink" x="37" y="129" style="font-size:11.2px">Commits</text><text class="scope muted" x="37" y="146" style="font-size:8.6px">default branch</text></g><g><rect class="surface" x="215" y="72" width="185" height="86" rx="17"/><rect x="215" y="72" width="5" height="86" rx="3" fill="#4aa8ff"/><text class="value ink" x="232" y="108" style="font-size:27px">112</text><text class="label ink" x="232" y="129" style="font-size:11.2px">Merged PRs</text><text class="scope muted" x="232" y="146" style="font-size:8.6px">merged into main</text></g><g><rect class="surface" x="20" y="168" width="185" height="86" rx="17"/><rect x="20" y="168" width="5" height="86" rx="3" fill="#7867f2"/><text class="value ink" x="37" y="204" style="font-size:27px">73</text><text class="label ink" x="37" y="225" style="font-size:11.2px">Issues closed</text><text class="scope muted" x="37" y="242" style="font-size:8.6px">pull requests excluded</text></g><g><rect class="surface" x="215" y="168" width="185" height="86" rx="17"/><rect x="215" y="168" width="5" height="86" rx="3" fill="#f4a261"/><text class="value ink" x="232" y="204" style="font-size:27px">2</text><text class="label ink" x="232" y="225" style="font-size:11.2px">Active contributors</text><text class="scope muted" x="232" y="242" style="font-size:8.6px">human commit / PR authors</text></g><g><rect class="strong" x="20" y="274" width="380" height="138" rx="16" fill="url(#soft)"/>
    <text class="label muted" x="38" y="299" style="font-size:10.5px">Median merge lead time</text>
    <text class="flow-value ink" x="38" y="322">2.2 h</text>
    <line class="grid" x1="38" y1="336" x2="382" y2="336"/>
    <text class="label muted" x="38" y="359" style="font-size:10.5px">Median first review</text>
    <text class="flow-value ink" x="38" y="382">—</text>
    <text class="scope muted" x="382" y="399" text-anchor="end" style="font-size:9px">Current UTC day is partial</text>
  </g><g><rect class="surface" x="20" y="430" width="380" height="250" rx="18"/><text class="chart-title ink" x="38" y="461">Daily delivery</text><text class="chart-subtitle muted" x="38" y="481">Commits and merged pull requests</text><line class="grid" x1="38" y1="504.0" x2="382" y2="504.0"/><line class="grid" x1="38" y1="547.3" x2="382" y2="547.3"/><line class="grid" x1="38" y1="590.7" x2="382" y2="590.7"/><line class="grid" x1="38" y1="634.0" x2="382" y2="634.0"/><rect x="39.2" y="632.5" width="3.6" height="1.5" rx="2" fill="#43d8b0"><title>2026-06-28 · Commits: 0</title></rect><rect x="44.7" y="632.5" width="3.6" height="1.5" rx="2" fill="#4aa8ff"><title>2026-06-28 · Merged PRs: 0</title></rect><rect x="50.6" y="632.5" width="3.6" height="1.5" rx="2" fill="#43d8b0"><title>2026-06-29 · Commits: 0</title></rect><rect x="56.2" y="632.5" width="3.6" height="1.5" rx="2" fill="#4aa8ff"><title>2026-06-29 · Merged PRs: 0</title></rect><rect x="62.1" y="632.5" width="3.6" height="1.5" rx="2" fill="#43d8b0"><title>2026-06-30 · Commits: 0</title></rect><rect x="67.7" y="632.5" width="3.6" height="1.5" rx="2" fill="#4aa8ff"><title>2026-06-30 · Merged PRs: 0</title></rect><rect x="73.6" y="632.5" width="3.6" height="1.5" rx="2" fill="#43d8b0"><title>2026-07-01 · Commits: 0</title></rect><rect x="79.1" y="632.5" width="3.6" height="1.5" rx="2" fill="#4aa8ff"><title>2026-07-01 · Merged PRs: 0</title></rect><rect x="85.0" y="632.5" width="3.6" height="1.5" rx="2" fill="#43d8b0"><title>2026-07-02 · Commits: 0</title></rect><rect x="90.6" y="632.5" width="3.6" height="1.5" rx="2" fill="#4aa8ff"><title>2026-07-02 · Merged PRs: 0</title></rect><rect x="96.5" y="632.5" width="3.6" height="1.5" rx="2" fill="#43d8b0"><title>2026-07-03 · Commits: 0</title></rect><rect x="102.1" y="632.5" width="3.6" height="1.5" rx="2" fill="#4aa8ff"><title>2026-07-03 · Merged PRs: 0</title></rect><rect x="108.0" y="632.5" width="3.6" height="1.5" rx="2" fill="#43d8b0"><title>2026-07-04 · Commits: 0</title></rect><rect x="113.5" y="632.5" width="3.6" height="1.5" rx="2" fill="#4aa8ff"><title>2026-07-04 · Merged PRs: 0</title></rect><rect x="119.4" y="632.5" width="3.6" height="1.5" rx="2" fill="#43d8b0"><title>2026-07-05 · Commits: 0</title></rect><rect x="125.0" y="632.5" width="3.6" height="1.5" rx="2" fill="#4aa8ff"><title>2026-07-05 · Merged PRs: 0</title></rect><rect x="130.9" y="632.5" width="3.6" height="1.5" rx="2" fill="#43d8b0"><title>2026-07-06 · Commits: 0</title></rect><rect x="136.5" y="632.5" width="3.6" height="1.5" rx="2" fill="#4aa8ff"><title>2026-07-06 · Merged PRs: 0</title></rect><rect x="142.4" y="632.5" width="3.6" height="1.5" rx="2" fill="#43d8b0"><title>2026-07-07 · Commits: 0</title></rect><rect x="147.9" y="632.5" width="3.6" height="1.5" rx="2" fill="#4aa8ff"><title>2026-07-07 · Merged PRs: 0</title></rect><rect x="153.8" y="632.5" width="3.6" height="1.5" rx="2" fill="#43d8b0"><title>2026-07-08 · Commits: 0</title></rect><rect x="159.4" y="632.5" width="3.6" height="1.5" rx="2" fill="#4aa8ff"><title>2026-07-08 · Merged PRs: 0</title></rect><rect x="165.3" y="632.5" width="3.6" height="1.5" rx="2" fill="#43d8b0"><title>2026-07-09 · Commits: 0</title></rect><rect x="170.9" y="632.5" width="3.6" height="1.5" rx="2" fill="#4aa8ff"><title>2026-07-09 · Merged PRs: 0</title></rect><rect x="176.8" y="632.5" width="3.6" height="1.5" rx="2" fill="#43d8b0"><title>2026-07-10 · Commits: 0</title></rect><rect x="182.3" y="632.5" width="3.6" height="1.5" rx="2" fill="#4aa8ff"><title>2026-07-10 · Merged PRs: 0</title></rect><rect x="188.2" y="627.2" width="3.6" height="6.8" rx="2" fill="#43d8b0"><title>2026-07-11 · Commits: 2</title></rect><rect x="193.8" y="632.5" width="3.6" height="1.5" rx="2" fill="#4aa8ff"><title>2026-07-11 · Merged PRs: 0</title></rect><rect x="199.7" y="504.0" width="3.6" height="130.0" rx="2" fill="#43d8b0"><title>2026-07-12 · Commits: 38</title></rect><rect x="205.3" y="558.7" width="3.6" height="75.3" rx="2" fill="#4aa8ff"><title>2026-07-12 · Merged PRs: 22</title></rect><rect x="211.2" y="589.5" width="3.6" height="44.5" rx="2" fill="#43d8b0"><title>2026-07-13 · Commits: 13</title></rect><rect x="216.7" y="589.5" width="3.6" height="44.5" rx="2" fill="#4aa8ff"><title>2026-07-13 · Merged PRs: 13</title></rect><rect x="222.6" y="613.5" width="3.6" height="20.5" rx="2" fill="#43d8b0"><title>2026-07-14 · Commits: 6</title></rect><rect x="228.2" y="613.5" width="3.6" height="20.5" rx="2" fill="#4aa8ff"><title>2026-07-14 · Merged PRs: 6</title></rect><rect x="234.1" y="613.5" width="3.6" height="20.5" rx="2" fill="#43d8b0"><title>2026-07-15 · Commits: 6</title></rect><rect x="239.7" y="613.5" width="3.6" height="20.5" rx="2" fill="#4aa8ff"><title>2026-07-15 · Merged PRs: 6</title></rect><rect x="245.6" y="632.5" width="3.6" height="1.5" rx="2" fill="#43d8b0"><title>2026-07-16 · Commits: 0</title></rect><rect x="251.1" y="632.5" width="3.6" height="1.5" rx="2" fill="#4aa8ff"><title>2026-07-16 · Merged PRs: 0</title></rect><rect x="257.0" y="632.5" width="3.6" height="1.5" rx="2" fill="#43d8b0"><title>2026-07-17 · Commits: 0</title></rect><rect x="262.6" y="632.5" width="3.6" height="1.5" rx="2" fill="#4aa8ff"><title>2026-07-17 · Merged PRs: 0</title></rect><rect x="268.5" y="632.5" width="3.6" height="1.5" rx="2" fill="#43d8b0"><title>2026-07-18 · Commits: 0</title></rect><rect x="274.1" y="632.5" width="3.6" height="1.5" rx="2" fill="#4aa8ff"><title>2026-07-18 · Merged PRs: 0</title></rect><rect x="280.0" y="632.5" width="3.6" height="1.5" rx="2" fill="#43d8b0"><title>2026-07-19 · Commits: 0</title></rect><rect x="285.5" y="632.5" width="3.6" height="1.5" rx="2" fill="#4aa8ff"><title>2026-07-19 · Merged PRs: 0</title></rect><rect x="291.4" y="558.7" width="3.6" height="75.3" rx="2" fill="#43d8b0"><title>2026-07-20 · Commits: 22</title></rect><rect x="297.0" y="558.7" width="3.6" height="75.3" rx="2" fill="#4aa8ff"><title>2026-07-20 · Merged PRs: 22</title></rect><rect x="302.9" y="632.5" width="3.6" height="1.5" rx="2" fill="#43d8b0"><title>2026-07-21 · Commits: 0</title></rect><rect x="308.5" y="632.5" width="3.6" height="1.5" rx="2" fill="#4aa8ff"><title>2026-07-21 · Merged PRs: 0</title></rect><rect x="314.4" y="599.8" width="3.6" height="34.2" rx="2" fill="#43d8b0"><title>2026-07-22 · Commits: 10</title></rect><rect x="319.9" y="599.8" width="3.6" height="34.2" rx="2" fill="#4aa8ff"><title>2026-07-22 · Merged PRs: 10</title></rect><rect x="325.8" y="613.5" width="3.6" height="20.5" rx="2" fill="#43d8b0"><title>2026-07-23 · Commits: 6</title></rect><rect x="331.4" y="613.5" width="3.6" height="20.5" rx="2" fill="#4aa8ff"><title>2026-07-23 · Merged PRs: 6</title></rect><rect x="337.3" y="596.4" width="3.6" height="37.6" rx="2" fill="#43d8b0"><title>2026-07-24 · Commits: 11</title></rect><rect x="342.9" y="596.4" width="3.6" height="37.6" rx="2" fill="#4aa8ff"><title>2026-07-24 · Merged PRs: 11</title></rect><rect x="348.8" y="630.6" width="3.6" height="3.4" rx="2" fill="#43d8b0"><title>2026-07-25 · Commits: 1</title></rect><rect x="354.3" y="630.6" width="3.6" height="3.4" rx="2" fill="#4aa8ff"><title>2026-07-25 · Merged PRs: 1</title></rect><rect x="360.2" y="613.5" width="3.6" height="20.5" rx="2" fill="#43d8b0"><title>2026-07-26 · Commits: 6</title></rect><rect x="365.8" y="613.5" width="3.6" height="20.5" rx="2" fill="#4aa8ff"><title>2026-07-26 · Merged PRs: 6</title></rect><rect x="371.7" y="603.2" width="3.6" height="30.8" rx="2" fill="#43d8b0"><title>2026-07-27 · Commits: 9</title></rect><rect x="377.3" y="603.2" width="3.6" height="30.8" rx="2" fill="#4aa8ff"><title>2026-07-27 · Merged PRs: 9</title></rect><text class="small faint" x="38.0" y="661" text-anchor="middle">28</text><text class="small faint" x="109.2" y="661" text-anchor="middle">4</text><text class="small faint" x="180.3" y="661" text-anchor="middle">10</text><text class="small faint" x="251.5" y="661" text-anchor="middle">16</text><text class="small faint" x="322.7" y="661" text-anchor="middle">22</text><text class="small faint" x="382.0" y="661" text-anchor="middle">27</text></g><g><rect class="surface" x="20" y="702" width="380" height="250" rx="18"/><text class="chart-title ink" x="38" y="733">Issue throughput</text><text class="chart-subtitle muted" x="38" y="753">Issues closed each UTC day</text><line class="grid" x1="38" y1="776.0" x2="382" y2="776.0"/><line class="grid" x1="38" y1="819.3" x2="382" y2="819.3"/><line class="grid" x1="38" y1="862.7" x2="382" y2="862.7"/><line class="grid" x1="38" y1="906.0" x2="382" y2="906.0"/><g><rect class="track" x="40.4" y="776" width="6.7" height="130" rx="3" opacity=".3"/><rect x="40.4" y="904.5" width="6.7" height="1.5" rx="3" fill="#7867f2"><title>2026-06-28 · Issues closed: 0</title></rect></g><g><rect class="track" x="51.9" y="776" width="6.7" height="130" rx="3" opacity=".3"/><rect x="51.9" y="904.5" width="6.7" height="1.5" rx="3" fill="#7867f2"><title>2026-06-29 · Issues closed: 0</title></rect></g><g><rect class="track" x="63.3" y="776" width="6.7" height="130" rx="3" opacity=".3"/><rect x="63.3" y="904.5" width="6.7" height="1.5" rx="3" fill="#7867f2"><title>2026-06-30 · Issues closed: 0</title></rect></g><g><rect class="track" x="74.8" y="776" width="6.7" height="130" rx="3" opacity=".3"/><rect x="74.8" y="904.5" width="6.7" height="1.5" rx="3" fill="#7867f2"><title>2026-07-01 · Issues closed: 0</title></rect></g><g><rect class="track" x="86.3" y="776" width="6.7" height="130" rx="3" opacity=".3"/><rect x="86.3" y="904.5" width="6.7" height="1.5" rx="3" fill="#7867f2"><title>2026-07-02 · Issues closed: 0</title></rect></g><g><rect class="track" x="97.7" y="776" width="6.7" height="130" rx="3" opacity=".3"/><rect x="97.7" y="904.5" width="6.7" height="1.5" rx="3" fill="#7867f2"><title>2026-07-03 · Issues closed: 0</title></rect></g><g><rect class="track" x="109.2" y="776" width="6.7" height="130" rx="3" opacity=".3"/><rect x="109.2" y="904.5" width="6.7" height="1.5" rx="3" fill="#7867f2"><title>2026-07-04 · Issues closed: 0</title></rect></g><g><rect class="track" x="120.7" y="776" width="6.7" height="130" rx="3" opacity=".3"/><rect x="120.7" y="904.5" width="6.7" height="1.5" rx="3" fill="#7867f2"><title>2026-07-05 · Issues closed: 0</title></rect></g><g><rect class="track" x="132.1" y="776" width="6.7" height="130" rx="3" opacity=".3"/><rect x="132.1" y="904.5" width="6.7" height="1.5" rx="3" fill="#7867f2"><title>2026-07-06 · Issues closed: 0</title></rect></g><g><rect class="track" x="143.6" y="776" width="6.7" height="130" rx="3" opacity=".3"/><rect x="143.6" y="904.5" width="6.7" height="1.5" rx="3" fill="#7867f2"><title>2026-07-07 · Issues closed: 0</title></rect></g><g><rect class="track" x="155.1" y="776" width="6.7" height="130" rx="3" opacity=".3"/><rect x="155.1" y="904.5" width="6.7" height="1.5" rx="3" fill="#7867f2"><title>2026-07-08 · Issues closed: 0</title></rect></g><g><rect class="track" x="166.5" y="776" width="6.7" height="130" rx="3" opacity=".3"/><rect x="166.5" y="904.5" width="6.7" height="1.5" rx="3" fill="#7867f2"><title>2026-07-09 · Issues closed: 0</title></rect></g><g><rect class="track" x="178.0" y="776" width="6.7" height="130" rx="3" opacity=".3"/><rect x="178.0" y="904.5" width="6.7" height="1.5" rx="3" fill="#7867f2"><title>2026-07-10 · Issues closed: 0</title></rect></g><g><rect class="track" x="189.5" y="776" width="6.7" height="130" rx="3" opacity=".3"/><rect x="189.5" y="904.5" width="6.7" height="1.5" rx="3" fill="#7867f2"><title>2026-07-11 · Issues closed: 0</title></rect></g><g><rect class="track" x="200.9" y="776" width="6.7" height="130" rx="3" opacity=".3"/><rect x="200.9" y="904.5" width="6.7" height="1.5" rx="3" fill="#7867f2"><title>2026-07-12 · Issues closed: 0</title></rect></g><g><rect class="track" x="212.4" y="776" width="6.7" height="130" rx="3" opacity=".3"/><rect x="212.4" y="899.2" width="6.7" height="6.8" rx="3" fill="#7867f2"><title>2026-07-13 · Issues closed: 1</title></rect></g><g><rect class="track" x="223.9" y="776" width="6.7" height="130" rx="3" opacity=".3"/><rect x="223.9" y="885.5" width="6.7" height="20.5" rx="3" fill="#7867f2"><title>2026-07-14 · Issues closed: 3</title></rect></g><g><rect class="track" x="235.3" y="776" width="6.7" height="130" rx="3" opacity=".3"/><rect x="235.3" y="776.0" width="6.7" height="130.0" rx="3" fill="#7867f2"><title>2026-07-15 · Issues closed: 19</title></rect></g><g><rect class="track" x="246.8" y="776" width="6.7" height="130" rx="3" opacity=".3"/><rect x="246.8" y="904.5" width="6.7" height="1.5" rx="3" fill="#7867f2"><title>2026-07-16 · Issues closed: 0</title></rect></g><g><rect class="track" x="258.3" y="776" width="6.7" height="130" rx="3" opacity=".3"/><rect x="258.3" y="904.5" width="6.7" height="1.5" rx="3" fill="#7867f2"><title>2026-07-17 · Issues closed: 0</title></rect></g><g><rect class="track" x="269.7" y="776" width="6.7" height="130" rx="3" opacity=".3"/><rect x="269.7" y="904.5" width="6.7" height="1.5" rx="3" fill="#7867f2"><title>2026-07-18 · Issues closed: 0</title></rect></g><g><rect class="track" x="281.2" y="776" width="6.7" height="130" rx="3" opacity=".3"/><rect x="281.2" y="904.5" width="6.7" height="1.5" rx="3" fill="#7867f2"><title>2026-07-19 · Issues closed: 0</title></rect></g><g><rect class="track" x="292.7" y="776" width="6.7" height="130" rx="3" opacity=".3"/><rect x="292.7" y="796.5" width="6.7" height="109.5" rx="3" fill="#7867f2"><title>2026-07-20 · Issues closed: 16</title></rect></g><g><rect class="track" x="304.1" y="776" width="6.7" height="130" rx="3" opacity=".3"/><rect x="304.1" y="904.5" width="6.7" height="1.5" rx="3" fill="#7867f2"><title>2026-07-21 · Issues closed: 0</title></rect></g><g><rect class="track" x="315.6" y="776" width="6.7" height="130" rx="3" opacity=".3"/><rect x="315.6" y="837.6" width="6.7" height="68.4" rx="3" fill="#7867f2"><title>2026-07-22 · Issues closed: 10</title></rect></g><g><rect class="track" x="327.1" y="776" width="6.7" height="130" rx="3" opacity=".3"/><rect x="327.1" y="904.5" width="6.7" height="1.5" rx="3" fill="#7867f2"><title>2026-07-23 · Issues closed: 0</title></rect></g><g><rect class="track" x="338.5" y="776" width="6.7" height="130" rx="3" opacity=".3"/><rect x="338.5" y="817.1" width="6.7" height="88.9" rx="3" fill="#7867f2"><title>2026-07-24 · Issues closed: 13</title></rect></g><g><rect class="track" x="350.0" y="776" width="6.7" height="130" rx="3" opacity=".3"/><rect x="350.0" y="899.2" width="6.7" height="6.8" rx="3" fill="#7867f2"><title>2026-07-25 · Issues closed: 1</title></rect></g><g><rect class="track" x="361.5" y="776" width="6.7" height="130" rx="3" opacity=".3"/><rect x="361.5" y="864.9" width="6.7" height="41.1" rx="3" fill="#7867f2"><title>2026-07-26 · Issues closed: 6</title></rect></g><g><rect class="track" x="372.9" y="776" width="6.7" height="130" rx="3" opacity=".3"/><rect x="372.9" y="878.6" width="6.7" height="27.4" rx="3" fill="#7867f2"><title>2026-07-27 · Issues closed: 4</title></rect></g><text class="small faint" x="38.0" y="933" text-anchor="middle">28</text><text class="small faint" x="109.2" y="933" text-anchor="middle">4</text><text class="small faint" x="180.3" y="933" text-anchor="middle">10</text><text class="small faint" x="251.5" y="933" text-anchor="middle">16</text><text class="small faint" x="322.7" y="933" text-anchor="middle">22</text><text class="small faint" x="382.0" y="933" text-anchor="middle">27</text></g><g><rect class="surface" x="20" y="974" width="380" height="250" rx="18"/><text class="chart-title ink" x="38" y="1005">Code movement</text><text class="chart-subtitle muted" x="38" y="1025">Added and deleted lines on main</text><line class="grid" x1="38" y1="1048.0" x2="382" y2="1048.0"/><line class="grid" x1="38" y1="1080.5" x2="382" y2="1080.5"/><line class="grid" x1="38" y1="1113.0" x2="382" y2="1113.0"/><line class="grid" x1="38" y1="1145.5" x2="382" y2="1145.5"/><line class="grid" x1="38" y1="1178.0" x2="382" y2="1178.0"/><line class="grid" x1="38" y1="1113" x2="382" y2="1113" stroke-width="1.5"/><rect x="40.4" y="1113.0" width="6.7" height="0.0" rx="2" fill="#43d8b0"><title>2026-06-28 · Additions: 0</title></rect><rect x="40.4" y="1113" width="6.7" height="0.0" rx="2" fill="#7867f2"><title>2026-06-28 · Deletions: 0</title></rect><rect x="51.9" y="1113.0" width="6.7" height="0.0" rx="2" fill="#43d8b0"><title>2026-06-29 · Additions: 0</title></rect><rect x="51.9" y="1113" width="6.7" height="0.0" rx="2" fill="#7867f2"><title>2026-06-29 · Deletions: 0</title></rect><rect x="63.3" y="1113.0" width="6.7" height="0.0" rx="2" fill="#43d8b0"><title>2026-06-30 · Additions: 0</title></rect><rect x="63.3" y="1113" width="6.7" height="0.0" rx="2" fill="#7867f2"><title>2026-06-30 · Deletions: 0</title></rect><rect x="74.8" y="1113.0" width="6.7" height="0.0" rx="2" fill="#43d8b0"><title>2026-07-01 · Additions: 0</title></rect><rect x="74.8" y="1113" width="6.7" height="0.0" rx="2" fill="#7867f2"><title>2026-07-01 · Deletions: 0</title></rect><rect x="86.3" y="1113.0" width="6.7" height="0.0" rx="2" fill="#43d8b0"><title>2026-07-02 · Additions: 0</title></rect><rect x="86.3" y="1113" width="6.7" height="0.0" rx="2" fill="#7867f2"><title>2026-07-02 · Deletions: 0</title></rect><rect x="97.7" y="1113.0" width="6.7" height="0.0" rx="2" fill="#43d8b0"><title>2026-07-03 · Additions: 0</title></rect><rect x="97.7" y="1113" width="6.7" height="0.0" rx="2" fill="#7867f2"><title>2026-07-03 · Deletions: 0</title></rect><rect x="109.2" y="1113.0" width="6.7" height="0.0" rx="2" fill="#43d8b0"><title>2026-07-04 · Additions: 0</title></rect><rect x="109.2" y="1113" width="6.7" height="0.0" rx="2" fill="#7867f2"><title>2026-07-04 · Deletions: 0</title></rect><rect x="120.7" y="1113.0" width="6.7" height="0.0" rx="2" fill="#43d8b0"><title>2026-07-05 · Additions: 0</title></rect><rect x="120.7" y="1113" width="6.7" height="0.0" rx="2" fill="#7867f2"><title>2026-07-05 · Deletions: 0</title></rect><rect x="132.1" y="1113.0" width="6.7" height="0.0" rx="2" fill="#43d8b0"><title>2026-07-06 · Additions: 0</title></rect><rect x="132.1" y="1113" width="6.7" height="0.0" rx="2" fill="#7867f2"><title>2026-07-06 · Deletions: 0</title></rect><rect x="143.6" y="1113.0" width="6.7" height="0.0" rx="2" fill="#43d8b0"><title>2026-07-07 · Additions: 0</title></rect><rect x="143.6" y="1113" width="6.7" height="0.0" rx="2" fill="#7867f2"><title>2026-07-07 · Deletions: 0</title></rect><rect x="155.1" y="1113.0" width="6.7" height="0.0" rx="2" fill="#43d8b0"><title>2026-07-08 · Additions: 0</title></rect><rect x="155.1" y="1113" width="6.7" height="0.0" rx="2" fill="#7867f2"><title>2026-07-08 · Deletions: 0</title></rect><rect x="166.5" y="1113.0" width="6.7" height="0.0" rx="2" fill="#43d8b0"><title>2026-07-09 · Additions: 0</title></rect><rect x="166.5" y="1113" width="6.7" height="0.0" rx="2" fill="#7867f2"><title>2026-07-09 · Deletions: 0</title></rect><rect x="178.0" y="1113.0" width="6.7" height="0.0" rx="2" fill="#43d8b0"><title>2026-07-10 · Additions: 0</title></rect><rect x="178.0" y="1113" width="6.7" height="0.0" rx="2" fill="#7867f2"><title>2026-07-10 · Deletions: 0</title></rect><rect x="189.5" y="1111.0" width="6.7" height="2.0" rx="2" fill="#43d8b0"><title>2026-07-11 · Additions: 783</title></rect><rect x="189.5" y="1113" width="6.7" height="2.0" rx="2" fill="#7867f2"><title>2026-07-11 · Deletions: 91</title></rect><rect x="200.9" y="1103.3" width="6.7" height="9.7" rx="2" fill="#43d8b0"><title>2026-07-12 · Additions: 7047</title></rect><rect x="200.9" y="1113" width="6.7" height="2.0" rx="2" fill="#7867f2"><title>2026-07-12 · Deletions: 1275</title></rect><rect x="212.4" y="1099.5" width="6.7" height="13.5" rx="2" fill="#43d8b0"><title>2026-07-13 · Additions: 9849</title></rect><rect x="212.4" y="1113" width="6.7" height="9.0" rx="2" fill="#7867f2"><title>2026-07-13 · Deletions: 6569</title></rect><rect x="223.9" y="1103.2" width="6.7" height="9.8" rx="2" fill="#43d8b0"><title>2026-07-14 · Additions: 7123</title></rect><rect x="223.9" y="1113" width="6.7" height="2.0" rx="2" fill="#7867f2"><title>2026-07-14 · Deletions: 829</title></rect><rect x="235.3" y="1082.0" width="6.7" height="31.0" rx="2" fill="#43d8b0"><title>2026-07-15 · Additions: 22558</title></rect><rect x="235.3" y="1113" width="6.7" height="2.8" rx="2" fill="#7867f2"><title>2026-07-15 · Deletions: 2038</title></rect><rect x="246.8" y="1113.0" width="6.7" height="0.0" rx="2" fill="#43d8b0"><title>2026-07-16 · Additions: 0</title></rect><rect x="246.8" y="1113" width="6.7" height="0.0" rx="2" fill="#7867f2"><title>2026-07-16 · Deletions: 0</title></rect><rect x="258.3" y="1113.0" width="6.7" height="0.0" rx="2" fill="#43d8b0"><title>2026-07-17 · Additions: 0</title></rect><rect x="258.3" y="1113" width="6.7" height="0.0" rx="2" fill="#7867f2"><title>2026-07-17 · Deletions: 0</title></rect><rect x="269.7" y="1113.0" width="6.7" height="0.0" rx="2" fill="#43d8b0"><title>2026-07-18 · Additions: 0</title></rect><rect x="269.7" y="1113" width="6.7" height="0.0" rx="2" fill="#7867f2"><title>2026-07-18 · Deletions: 0</title></rect><rect x="281.2" y="1113.0" width="6.7" height="0.0" rx="2" fill="#43d8b0"><title>2026-07-19 · Additions: 0</title></rect><rect x="281.2" y="1113" width="6.7" height="0.0" rx="2" fill="#7867f2"><title>2026-07-19 · Deletions: 0</title></rect><rect x="292.7" y="1052.0" width="6.7" height="61.0" rx="2" fill="#43d8b0"><title>2026-07-20 · Additions: 44428</title></rect><rect x="292.7" y="1113" width="6.7" height="29.7" rx="2" fill="#7867f2"><title>2026-07-20 · Deletions: 21599</title></rect><rect x="304.1" y="1113.0" width="6.7" height="0.0" rx="2" fill="#43d8b0"><title>2026-07-21 · Additions: 0</title></rect><rect x="304.1" y="1113" width="6.7" height="0.0" rx="2" fill="#7867f2"><title>2026-07-21 · Deletions: 0</title></rect><rect x="315.6" y="1090.4" width="6.7" height="22.6" rx="2" fill="#43d8b0"><title>2026-07-22 · Additions: 16488</title></rect><rect x="315.6" y="1113" width="6.7" height="4.2" rx="2" fill="#7867f2"><title>2026-07-22 · Deletions: 3035</title></rect><rect x="327.1" y="1106.2" width="6.7" height="6.8" rx="2" fill="#43d8b0"><title>2026-07-23 · Additions: 4917</title></rect><rect x="327.1" y="1113" width="6.7" height="2.0" rx="2" fill="#7867f2"><title>2026-07-23 · Deletions: 733</title></rect><rect x="338.5" y="1105.6" width="6.7" height="7.4" rx="2" fill="#43d8b0"><title>2026-07-24 · Additions: 5356</title></rect><rect x="338.5" y="1113" width="6.7" height="2.0" rx="2" fill="#7867f2"><title>2026-07-24 · Deletions: 894</title></rect><rect x="350.0" y="1111.0" width="6.7" height="2.0" rx="2" fill="#43d8b0"><title>2026-07-25 · Additions: 165</title></rect><rect x="350.0" y="1113" width="6.7" height="2.0" rx="2" fill="#7867f2"><title>2026-07-25 · Deletions: 50</title></rect><rect x="361.5" y="1092.3" width="6.7" height="20.7" rx="2" fill="#43d8b0"><title>2026-07-26 · Additions: 15078</title></rect><rect x="361.5" y="1113" width="6.7" height="2.0" rx="2" fill="#7867f2"><title>2026-07-26 · Deletions: 1485</title></rect><rect x="372.9" y="1094.9" width="6.7" height="18.1" rx="2" fill="#43d8b0"><title>2026-07-27 · Additions: 13168</title></rect><rect x="372.9" y="1113" width="6.7" height="2.4" rx="2" fill="#7867f2"><title>2026-07-27 · Deletions: 1728</title></rect><text class="small faint" x="38.0" y="1205" text-anchor="middle">28</text><text class="small faint" x="109.2" y="1205" text-anchor="middle">4</text><text class="small faint" x="180.3" y="1205" text-anchor="middle">10</text><text class="small faint" x="251.5" y="1205" text-anchor="middle">16</text><text class="small faint" x="322.7" y="1205" text-anchor="middle">22</text><text class="small faint" x="382.0" y="1205" text-anchor="middle">27</text></g><g><rect class="surface" x="20" y="1246" width="380" height="250" rx="18"/><text class="chart-title ink" x="38" y="1277">Pull request flow</text><text class="chart-subtitle muted" x="38" y="1297">Median lead time by merge day</text><line class="grid" x1="38" y1="1320.0" x2="382" y2="1320.0"/><line class="grid" x1="38" y1="1363.3" x2="382" y2="1363.3"/><line class="grid" x1="38" y1="1406.7" x2="382" y2="1406.7"/><line class="grid" x1="38" y1="1450.0" x2="382" y2="1450.0"/><line x1="38" y1="1438.8" x2="382" y2="1438.8" stroke="#f4a261" stroke-dasharray="5 5"/><rect class="track" x="40.4" y="1448.5" width="6.7" height="1.5"/><rect class="track" x="51.9" y="1448.5" width="6.7" height="1.5"/><rect class="track" x="63.3" y="1448.5" width="6.7" height="1.5"/><rect class="track" x="74.8" y="1448.5" width="6.7" height="1.5"/><rect class="track" x="86.3" y="1448.5" width="6.7" height="1.5"/><rect class="track" x="97.7" y="1448.5" width="6.7" height="1.5"/><rect class="track" x="109.2" y="1448.5" width="6.7" height="1.5"/><rect class="track" x="120.7" y="1448.5" width="6.7" height="1.5"/><rect class="track" x="132.1" y="1448.5" width="6.7" height="1.5"/><rect class="track" x="143.6" y="1448.5" width="6.7" height="1.5"/><rect class="track" x="155.1" y="1448.5" width="6.7" height="1.5"/><rect class="track" x="166.5" y="1448.5" width="6.7" height="1.5"/><rect class="track" x="178.0" y="1448.5" width="6.7" height="1.5"/><rect class="track" x="189.5" y="1448.5" width="6.7" height="1.5"/><rect x="200.9" y="1447.0" width="6.7" height="3.0" rx="3" fill="#4aa8ff"><title>2026-07-12 · Median merge lead time: &lt;1 h</title></rect><rect x="212.4" y="1447.0" width="6.7" height="3.0" rx="3" fill="#4aa8ff"><title>2026-07-13 · Median merge lead time: &lt;1 h</title></rect><rect x="223.9" y="1440.5" width="6.7" height="9.5" rx="3" fill="#4aa8ff"><title>2026-07-14 · Median merge lead time: 1.8 h</title></rect><rect x="235.3" y="1446.8" width="6.7" height="3.2" rx="3" fill="#4aa8ff"><title>2026-07-15 · Median merge lead time: &lt;1 h</title></rect><rect class="track" x="246.8" y="1448.5" width="6.7" height="1.5"/><rect class="track" x="258.3" y="1448.5" width="6.7" height="1.5"/><rect class="track" x="269.7" y="1448.5" width="6.7" height="1.5"/><rect class="track" x="281.2" y="1448.5" width="6.7" height="1.5"/><rect x="292.7" y="1398.3" width="6.7" height="51.7" rx="3" fill="#4aa8ff"><title>2026-07-20 · Median merge lead time: 10 h</title></rect><rect class="track" x="304.1" y="1448.5" width="6.7" height="1.5"/><rect x="315.6" y="1320.0" width="6.7" height="130.0" rx="3" fill="#4aa8ff"><title>2026-07-22 · Median merge lead time: 25 h</title></rect><rect x="327.1" y="1447.0" width="6.7" height="3.0" rx="3" fill="#4aa8ff"><title>2026-07-23 · Median merge lead time: &lt;1 h</title></rect><rect x="338.5" y="1328.9" width="6.7" height="121.1" rx="3" fill="#4aa8ff"><title>2026-07-24 · Median merge lead time: 23 h</title></rect><rect x="350.0" y="1418.4" width="6.7" height="31.6" rx="3" fill="#4aa8ff"><title>2026-07-25 · Median merge lead time: 6.1 h</title></rect><rect x="361.5" y="1359.3" width="6.7" height="90.7" rx="3" fill="#4aa8ff"><title>2026-07-26 · Median merge lead time: 18 h</title></rect><rect x="372.9" y="1389.5" width="6.7" height="60.5" rx="3" fill="#4aa8ff"><title>2026-07-27 · Median merge lead time: 12 h</title></rect><text class="small faint" x="38.0" y="1477" text-anchor="middle">28</text><text class="small faint" x="109.2" y="1477" text-anchor="middle">4</text><text class="small faint" x="180.3" y="1477" text-anchor="middle">10</text><text class="small faint" x="251.5" y="1477" text-anchor="middle">16</text><text class="small faint" x="322.7" y="1477" text-anchor="middle">22</text><text class="small faint" x="382.0" y="1477" text-anchor="middle">27</text></g><text class="small faint" x="20" y="1524" style="font-size:8.8px">Generated by GitHub Actions</text><text class="small faint" x="20" y="1539" style="font-size:8.8px">totals include automation</text><text class="small faint" x="20" y="1554" style="font-size:8.8px">contributors exclude bots</text></svg>
