<svg xmlns="http://www.w3.org/2000/svg" viewBox="0 0 720 220" role="img" aria-labelledby="title desc">
  <title id="title">Towk</title>
  <desc id="desc">Towk product wordmark and connected conversation mark.</desc>
  <rect width="720" height="220" rx="40" fill="#f7f9fc"/>
  <g transform="translate(30 20) scale(.703125)">
    <rect width="256" height="256" rx="56" fill="#0b1020"/>
    <path d="M49 55h158a16 16 0 0 1 16 16v17a16 16 0 0 1-16 16h-55v78a24 24 0 0 1-24 24 24 24 0 0 1-24-24v-78H49a16 16 0 0 1-16-16V71a16 16 0 0 1 16-16Z" fill="#43d8b0"/>
    <path d="M55 127h28v23a14 14 0 0 1-14 14H55l-22 20v-43a14 14 0 0 1 14-14h8Zm146 0h-28v23a14 14 0 0 0 14 14h14l22 20v-43a14 14 0 0 0-14-14h-8Z" fill="#7867f2"/>
    <circle cx="128" cy="79.5" r="8" fill="#0b1020"/>
  </g>
  <text x="245" y="148" fill="#0b1020" font-family="Inter, ui-sans-serif, system-ui, sans-serif" font-size="112" font-weight="720" letter-spacing="-5">Towk</text>
</svg>
