<svg xmlns="http://www.w3.org/2000/svg" width="1200" height="690" viewBox="0 0 1200 690" role="img" aria-labelledby="title desc">
  <title id="title">Ritmo de desarrollo</title>
  <desc id="desc">Actividad Towk desde el repositorio independiente</desc>
  <defs>
    <linearGradient id="accent" x1="0" y1="0" x2="1" y2="1">
      <stop offset="0%" stop-color="#43d8b0"/>
      <stop offset="50%" stop-color="#4aa8ff"/>
      <stop offset="100%" stop-color="#7867f2"/>
    </linearGradient>
    <linearGradient id="accent-soft" x1="0" y1="0" x2="1" y2="1">
      <stop offset="0%" stop-color="#43d8b0" stop-opacity="0.24"/>
      <stop offset="100%" stop-color="#7867f2" stop-opacity="0.18"/>
    </linearGradient>
    <filter id="glow" x="-30%" y="-30%" width="160%" height="160%">
      <feGaussianBlur stdDeviation="18"/>
    </filter>
    
  </defs>
  <style>
    .bg { fill: #ffffff; stroke: #d0d7de; }
    .panel { fill: #f6f8fa; stroke: #d8dee4; }
    .panel-strong { fill: #eef7ff; stroke: #b6d8ff; }
    .ink { fill: #18212f; }
    .muted { fill: #667085; }
    .faint { fill: #98a2b3; }
    .grid { stroke: #dfe5ec; }
    .track { fill: #e7edf3; }
    .title { font: 800 28px -apple-system, BlinkMacSystemFont, "Segoe UI", sans-serif; }
    .subtitle { font: 500 14px -apple-system, BlinkMacSystemFont, "Segoe UI", sans-serif; }
    .kpi { font: 800 32px -apple-system, BlinkMacSystemFont, "Segoe UI", sans-serif; }
    .label { font: 650 13px -apple-system, BlinkMacSystemFont, "Segoe UI", sans-serif; }
    .small { font: 500 11px -apple-system, BlinkMacSystemFont, "Segoe UI", sans-serif; }
    .body { font: 600 13px -apple-system, BlinkMacSystemFont, "Segoe UI", sans-serif; }
    .hero-eyebrow { font: 800 14px -apple-system, BlinkMacSystemFont, "Segoe UI", sans-serif; letter-spacing: 2px; }
    .hero-title { font: 850 48px -apple-system, BlinkMacSystemFont, "Segoe UI", sans-serif; }
    .hero-subtitle { font: 550 19px -apple-system, BlinkMacSystemFont, "Segoe UI", sans-serif; }
    .chip { font: 700 12px -apple-system, BlinkMacSystemFont, "Segoe UI", sans-serif; }
    @media (prefers-color-scheme: dark) {
      .bg { fill: #0d1117; stroke: #30363d; }
      .panel { fill: #161b22; stroke: #30363d; }
      .panel-strong { fill: #10263a; stroke: #244d70; }
      .ink { fill: #f0f6fc; }
      .muted { fill: #a7b0bc; }
      .faint { fill: #7d8590; }
      .grid { stroke: #30363d; }
      .track { fill: #27313d; }
    }
  </style>
  <rect class="bg" x="1" y="1" width="1198" height="688" rx="22"/>
  <rect x="0" y="0" width="1200" height="10" rx="5" fill="url(#accent)"/>
  <text class="title ink" x="32" y="48">Ritmo de desarrollo</text>
  <text class="subtitle muted" x="32" y="70">Actividad Towk desde el repositorio independiente</text>
<g><rect class="panel" x="32" y="82" width="270" height="94" rx="18"/><rect x="32" y="82" width="6" height="94" rx="3" fill="#43d8b0"/><text class="kpi ink" x="54" y="125">100</text><text class="label muted" x="54" y="151">commits</text></g>
<g><rect class="panel" x="318" y="82" width="270" height="94" rx="18"/><rect x="318" y="82" width="6" height="94" rx="3" fill="#4aa8ff"/><text class="kpi ink" x="340" y="125">82</text><text class="label muted" x="340" y="151">pull requests fusionadas</text></g>
<g><rect class="panel" x="604" y="82" width="270" height="94" rx="18"/><rect x="604" y="82" width="6" height="94" rx="3" fill="#7867f2"/><text class="kpi ink" x="626" y="125">8</text><text class="label muted" x="626" y="151">días activos</text></g>
<g><rect class="panel" x="890" y="82" width="270" height="94" rx="18"/><rect x="890" y="82" width="6" height="94" rx="3" fill="#f4a261"/><text class="kpi ink" x="912" y="125">2</text><text class="label muted" x="912" y="151">autores humanos de commits</text></g>
  <g><rect class="panel" x="32" y="204" width="740" height="274" rx="20"/><text class="label ink" x="54" y="239">Commits por día</text><text class="small muted" x="54" y="259">Últimos 30 días</text><line class="grid" x1="54" y1="286.0" x2="750" y2="286.0" stroke-width="1"/>
<line class="grid" x1="54" y1="321.0" x2="750" y2="321.0" stroke-width="1"/>
<line class="grid" x1="54" y1="356.0" x2="750" y2="356.0" stroke-width="1"/>
<line class="grid" x1="54" y1="391.0" x2="750" y2="391.0" stroke-width="1"/>
<line class="grid" x1="54" y1="426.0" x2="750" y2="426.0" stroke-width="1"/>
<polygon points="54,426 54.0,426.0 78.0,426.0 102.0,426.0 126.0,426.0 150.0,426.0 174.0,426.0 198.0,426.0 222.0,426.0 246.0,426.0 270.0,426.0 294.0,426.0 318.0,426.0 342.0,426.0 366.0,426.0 390.0,426.0 414.0,426.0 438.0,426.0 462.0,418.6 486.0,286.0 510.0,378.1 534.0,403.9 558.0,403.9 582.0,426.0 606.0,426.0 630.0,426.0 654.0,426.0 678.0,344.9 702.0,426.0 726.0,389.2 750.0,414.9 750,426" fill="#43d8b0" opacity="0.13"/>
<polyline points="54.0,426.0 78.0,426.0 102.0,426.0 126.0,426.0 150.0,426.0 174.0,426.0 198.0,426.0 222.0,426.0 246.0,426.0 270.0,426.0 294.0,426.0 318.0,426.0 342.0,426.0 366.0,426.0 390.0,426.0 414.0,426.0 438.0,426.0 462.0,418.6 486.0,286.0 510.0,378.1 534.0,403.9 558.0,403.9 582.0,426.0 606.0,426.0 630.0,426.0 654.0,426.0 678.0,344.9 702.0,426.0 726.0,389.2 750.0,414.9" fill="none" stroke="#43d8b0" stroke-width="4" stroke-linecap="round" stroke-linejoin="round"/>
<circle cx="462.0" cy="418.6" r="3.2" fill="#43d8b0"/>
<circle cx="486.0" cy="286.0" r="3.2" fill="#43d8b0"/>
<circle cx="510.0" cy="378.1" r="3.2" fill="#43d8b0"/>
<circle cx="534.0" cy="403.9" r="3.2" fill="#43d8b0"/>
<circle cx="558.0" cy="403.9" r="3.2" fill="#43d8b0"/>
<circle cx="678.0" cy="344.9" r="3.2" fill="#43d8b0"/>
<circle cx="726.0" cy="389.2" r="3.2" fill="#43d8b0"/>
<circle cx="750.0" cy="414.9" r="3.2" fill="#43d8b0"/>
<text class="small faint" x="54.0" y="446" text-anchor="middle">24</text>




<text class="small faint" x="174.0" y="446" text-anchor="middle">29</text>




<text class="small faint" x="294.0" y="446" text-anchor="middle">4</text>




<text class="small faint" x="414.0" y="446" text-anchor="middle">9</text>




<text class="small faint" x="534.0" y="446" text-anchor="middle">14</text>




<text class="small faint" x="654.0" y="446" text-anchor="middle">19</text>



<text class="small faint" x="750.0" y="446" text-anchor="middle">23</text></g>
  <g><rect class="panel" x="790" y="204" width="378" height="274" rx="20"/><text class="label ink" x="812" y="239">Commits por semana</text><text class="small muted" x="812" y="259">Últimas 12 semanas</text><g><rect class="track" x="817.0" y="286" width="17.8" height="140" rx="7.0" opacity="0.44"/><rect x="817.0" y="424.0" width="17.8" height="2.0" rx="7.0" fill="#4aa8ff"/><title>2026-05-04 – 2026-05-10: 0</title><text class="small faint" x="825.9" y="445" text-anchor="middle">04/05</text></g>
<g><rect class="track" x="844.8" y="286" width="17.8" height="140" rx="7.0" opacity="0.44"/><rect x="844.8" y="424.0" width="17.8" height="2.0" rx="7.0" fill="#4aa8ff"/><title>2026-05-11 – 2026-05-17: 0</title></g>
<g><rect class="track" x="872.7" y="286" width="17.8" height="140" rx="7.0" opacity="0.44"/><rect x="872.7" y="424.0" width="17.8" height="2.0" rx="7.0" fill="#4aa8ff"/><title>2026-05-18 – 2026-05-24: 0</title><text class="small faint" x="881.6" y="445" text-anchor="middle">18/05</text></g>
<g><rect class="track" x="900.5" y="286" width="17.8" height="140" rx="7.0" opacity="0.44"/><rect x="900.5" y="424.0" width="17.8" height="2.0" rx="7.0" fill="#4aa8ff"/><title>2026-05-25 – 2026-05-31: 0</title></g>
<g><rect class="track" x="928.3" y="286" width="17.8" height="140" rx="7.0" opacity="0.44"/><rect x="928.3" y="424.0" width="17.8" height="2.0" rx="7.0" fill="#4aa8ff"/><title>2026-06-01 – 2026-06-07: 0</title><text class="small faint" x="937.3" y="445" text-anchor="middle">01/06</text></g>
<g><rect class="track" x="956.2" y="286" width="17.8" height="140" rx="7.0" opacity="0.44"/><rect x="956.2" y="424.0" width="17.8" height="2.0" rx="7.0" fill="#4aa8ff"/><title>2026-06-08 – 2026-06-14: 0</title></g>
<g><rect class="track" x="984.0" y="286" width="17.8" height="140" rx="7.0" opacity="0.44"/><rect x="984.0" y="424.0" width="17.8" height="2.0" rx="7.0" fill="#4aa8ff"/><title>2026-06-15 – 2026-06-21: 0</title><text class="small faint" x="992.9" y="445" text-anchor="middle">15/06</text></g>
<g><rect class="track" x="1011.8" y="286" width="17.8" height="140" rx="7.0" opacity="0.44"/><rect x="1011.8" y="424.0" width="17.8" height="2.0" rx="7.0" fill="#4aa8ff"/><title>2026-06-22 – 2026-06-28: 0</title></g>
<g><rect class="track" x="1039.7" y="286" width="17.8" height="140" rx="7.0" opacity="0.44"/><rect x="1039.7" y="424.0" width="17.8" height="2.0" rx="7.0" fill="#4aa8ff"/><title>2026-06-29 – 2026-07-05: 0</title><text class="small faint" x="1048.6" y="445" text-anchor="middle">29/06</text></g>
<g><rect class="track" x="1067.5" y="286" width="17.8" height="140" rx="7.0" opacity="0.44"/><rect x="1067.5" y="286.0" width="17.8" height="140.0" rx="7.0" fill="#4aa8ff"/><title>2026-07-06 – 2026-07-12: 40</title></g>
<g><rect class="track" x="1095.3" y="286" width="17.8" height="140" rx="7.0" opacity="0.44"/><rect x="1095.3" y="338.5" width="17.8" height="87.5" rx="7.0" fill="#4aa8ff"/><title>2026-07-13 – 2026-07-19: 25</title><text class="small faint" x="1104.3" y="445" text-anchor="middle">13/07</text></g>
<g><rect class="track" x="1123.2" y="286" width="17.8" height="140" rx="7.0" opacity="0.44"/><rect x="1123.2" y="303.5" width="17.8" height="122.5" rx="7.0" fill="#4aa8ff"/><title>2026-07-20 – 2026-07-26: 35</title></g></g>
  <g><rect class="panel" x="32" y="500" width="558" height="150" rx="20"/><text class="label ink" x="54" y="535">Commits por mes</text><g><rect class="track" x="59.0" y="558" width="32.8" height="52" rx="7.0" opacity="0.44"/><rect x="59.0" y="608.0" width="32.8" height="2.0" rx="7.0" fill="#43d8b0"/><title>Ago 2025: 0</title><text class="small faint" x="75.4" y="629" text-anchor="middle">Ago</text></g>
<g><rect class="track" x="101.8" y="558" width="32.8" height="52" rx="7.0" opacity="0.44"/><rect x="101.8" y="608.0" width="32.8" height="2.0" rx="7.0" fill="#43d8b0"/><title>Sep 2025: 0</title><text class="small faint" x="118.3" y="629" text-anchor="middle">Sep</text></g>
<g><rect class="track" x="144.7" y="558" width="32.8" height="52" rx="7.0" opacity="0.44"/><rect x="144.7" y="608.0" width="32.8" height="2.0" rx="7.0" fill="#43d8b0"/><title>Oct 2025: 0</title><text class="small faint" x="161.1" y="629" text-anchor="middle">Oct</text></g>
<g><rect class="track" x="187.5" y="558" width="32.8" height="52" rx="7.0" opacity="0.44"/><rect x="187.5" y="608.0" width="32.8" height="2.0" rx="7.0" fill="#43d8b0"/><title>Nov 2025: 0</title><text class="small faint" x="203.9" y="629" text-anchor="middle">Nov</text></g>
<g><rect class="track" x="230.3" y="558" width="32.8" height="52" rx="7.0" opacity="0.44"/><rect x="230.3" y="608.0" width="32.8" height="2.0" rx="7.0" fill="#43d8b0"/><title>Dic 2025: 0</title><text class="small faint" x="246.8" y="629" text-anchor="middle">Dic</text></g>
<g><rect class="track" x="273.2" y="558" width="32.8" height="52" rx="7.0" opacity="0.44"/><rect x="273.2" y="608.0" width="32.8" height="2.0" rx="7.0" fill="#43d8b0"/><title>Ene 2026: 0</title><text class="small faint" x="289.6" y="629" text-anchor="middle">Ene</text></g>
<g><rect class="track" x="316.0" y="558" width="32.8" height="52" rx="7.0" opacity="0.44"/><rect x="316.0" y="608.0" width="32.8" height="2.0" rx="7.0" fill="#43d8b0"/><title>Feb 2026: 0</title><text class="small faint" x="332.4" y="629" text-anchor="middle">Feb</text></g>
<g><rect class="track" x="358.8" y="558" width="32.8" height="52" rx="7.0" opacity="0.44"/><rect x="358.8" y="608.0" width="32.8" height="2.0" rx="7.0" fill="#43d8b0"/><title>Mar 2026: 0</title><text class="small faint" x="375.3" y="629" text-anchor="middle">Mar</text></g>
<g><rect class="track" x="401.7" y="558" width="32.8" height="52" rx="7.0" opacity="0.44"/><rect x="401.7" y="608.0" width="32.8" height="2.0" rx="7.0" fill="#43d8b0"/><title>Abr 2026: 0</title><text class="small faint" x="418.1" y="629" text-anchor="middle">Abr</text></g>
<g><rect class="track" x="444.5" y="558" width="32.8" height="52" rx="7.0" opacity="0.44"/><rect x="444.5" y="608.0" width="32.8" height="2.0" rx="7.0" fill="#43d8b0"/><title>May 2026: 0</title><text class="small faint" x="460.9" y="629" text-anchor="middle">May</text></g>
<g><rect class="track" x="487.3" y="558" width="32.8" height="52" rx="7.0" opacity="0.44"/><rect x="487.3" y="608.0" width="32.8" height="2.0" rx="7.0" fill="#43d8b0"/><title>Jun 2026: 0</title><text class="small faint" x="503.8" y="629" text-anchor="middle">Jun</text></g>
<g><rect class="track" x="530.2" y="558" width="32.8" height="52" rx="7.0" opacity="0.44"/><rect x="530.2" y="558.0" width="32.8" height="52.0" rx="7.0" fill="#43d8b0"/><title>Jul 2026: 100</title><text class="small faint" x="546.6" y="629" text-anchor="middle">Jul</text></g></g>
  <g><rect class="panel" x="610" y="500" width="558" height="150" rx="20"/><text class="label ink" x="632" y="535">PR fusionadas por mes</text><g><rect class="track" x="637.0" y="558" width="32.8" height="52" rx="7.0" opacity="0.44"/><rect x="637.0" y="608.0" width="32.8" height="2.0" rx="7.0" fill="#7867f2"/><title>Ago 2025: 0</title><text class="small faint" x="653.4" y="629" text-anchor="middle">Ago</text></g>
<g><rect class="track" x="679.8" y="558" width="32.8" height="52" rx="7.0" opacity="0.44"/><rect x="679.8" y="608.0" width="32.8" height="2.0" rx="7.0" fill="#7867f2"/><title>Sep 2025: 0</title><text class="small faint" x="696.3" y="629" text-anchor="middle">Sep</text></g>
<g><rect class="track" x="722.7" y="558" width="32.8" height="52" rx="7.0" opacity="0.44"/><rect x="722.7" y="608.0" width="32.8" height="2.0" rx="7.0" fill="#7867f2"/><title>Oct 2025: 0</title><text class="small faint" x="739.1" y="629" text-anchor="middle">Oct</text></g>
<g><rect class="track" x="765.5" y="558" width="32.8" height="52" rx="7.0" opacity="0.44"/><rect x="765.5" y="608.0" width="32.8" height="2.0" rx="7.0" fill="#7867f2"/><title>Nov 2025: 0</title><text class="small faint" x="781.9" y="629" text-anchor="middle">Nov</text></g>
<g><rect class="track" x="808.3" y="558" width="32.8" height="52" rx="7.0" opacity="0.44"/><rect x="808.3" y="608.0" width="32.8" height="2.0" rx="7.0" fill="#7867f2"/><title>Dic 2025: 0</title><text class="small faint" x="824.8" y="629" text-anchor="middle">Dic</text></g>
<g><rect class="track" x="851.2" y="558" width="32.8" height="52" rx="7.0" opacity="0.44"/><rect x="851.2" y="608.0" width="32.8" height="2.0" rx="7.0" fill="#7867f2"/><title>Ene 2026: 0</title><text class="small faint" x="867.6" y="629" text-anchor="middle">Ene</text></g>
<g><rect class="track" x="894.0" y="558" width="32.8" height="52" rx="7.0" opacity="0.44"/><rect x="894.0" y="608.0" width="32.8" height="2.0" rx="7.0" fill="#7867f2"/><title>Feb 2026: 0</title><text class="small faint" x="910.4" y="629" text-anchor="middle">Feb</text></g>
<g><rect class="track" x="936.8" y="558" width="32.8" height="52" rx="7.0" opacity="0.44"/><rect x="936.8" y="608.0" width="32.8" height="2.0" rx="7.0" fill="#7867f2"/><title>Mar 2026: 0</title><text class="small faint" x="953.3" y="629" text-anchor="middle">Mar</text></g>
<g><rect class="track" x="979.7" y="558" width="32.8" height="52" rx="7.0" opacity="0.44"/><rect x="979.7" y="608.0" width="32.8" height="2.0" rx="7.0" fill="#7867f2"/><title>Abr 2026: 0</title><text class="small faint" x="996.1" y="629" text-anchor="middle">Abr</text></g>
<g><rect class="track" x="1022.5" y="558" width="32.8" height="52" rx="7.0" opacity="0.44"/><rect x="1022.5" y="608.0" width="32.8" height="2.0" rx="7.0" fill="#7867f2"/><title>May 2026: 0</title><text class="small faint" x="1038.9" y="629" text-anchor="middle">May</text></g>
<g><rect class="track" x="1065.3" y="558" width="32.8" height="52" rx="7.0" opacity="0.44"/><rect x="1065.3" y="608.0" width="32.8" height="2.0" rx="7.0" fill="#7867f2"/><title>Jun 2026: 0</title><text class="small faint" x="1081.8" y="629" text-anchor="middle">Jun</text></g>
<g><rect class="track" x="1108.2" y="558" width="32.8" height="52" rx="7.0" opacity="0.44"/><rect x="1108.2" y="558.0" width="32.8" height="52.0" rx="7.0" fill="#7867f2"/><title>Jul 2026: 82</title><text class="small faint" x="1124.6" y="629" text-anchor="middle">Jul</text></g></g>
  <text class="small faint" x="32" y="674">Actualizado 23 jul 2026, 20:18</text>
  <text class="small faint" x="1168" y="674" text-anchor="end">Towk independiente · desde el 12 jul. 2026</text>
</svg>
