<svg xmlns="http://www.w3.org/2000/svg" width="420" height="1110" viewBox="0 0 420 1110" role="img" aria-labelledby="title desc">
  <title id="title">Ritmo de desarrollo</title>
  <desc id="desc">Actividad Towk desde el repositorio independiente</desc>
  <defs>
    <linearGradient id="accent" x1="0" y1="0" x2="1" y2="1">
      <stop offset="0%" stop-color="#43d8b0"/>
      <stop offset="50%" stop-color="#4aa8ff"/>
      <stop offset="100%" stop-color="#7867f2"/>
    </linearGradient>
    <linearGradient id="accent-soft" x1="0" y1="0" x2="1" y2="1">
      <stop offset="0%" stop-color="#43d8b0" stop-opacity="0.24"/>
      <stop offset="100%" stop-color="#7867f2" stop-opacity="0.18"/>
    </linearGradient>
    <filter id="glow" x="-30%" y="-30%" width="160%" height="160%">
      <feGaussianBlur stdDeviation="18"/>
    </filter>
    
  </defs>
  <style>
    .bg { fill: #ffffff; stroke: #d0d7de; }
    .panel { fill: #f6f8fa; stroke: #d8dee4; }
    .panel-strong { fill: #eef7ff; stroke: #b6d8ff; }
    .ink { fill: #18212f; }
    .muted { fill: #667085; }
    .faint { fill: #98a2b3; }
    .grid { stroke: #dfe5ec; }
    .track { fill: #e7edf3; }
    .title { font: 800 28px -apple-system, BlinkMacSystemFont, "Segoe UI", sans-serif; }
    .subtitle { font: 500 14px -apple-system, BlinkMacSystemFont, "Segoe UI", sans-serif; }
    .kpi { font: 800 32px -apple-system, BlinkMacSystemFont, "Segoe UI", sans-serif; }
    .label { font: 650 13px -apple-system, BlinkMacSystemFont, "Segoe UI", sans-serif; }
    .small { font: 500 11px -apple-system, BlinkMacSystemFont, "Segoe UI", sans-serif; }
    .body { font: 600 13px -apple-system, BlinkMacSystemFont, "Segoe UI", sans-serif; }
    .hero-eyebrow { font: 800 14px -apple-system, BlinkMacSystemFont, "Segoe UI", sans-serif; letter-spacing: 2px; }
    .hero-title { font: 850 48px -apple-system, BlinkMacSystemFont, "Segoe UI", sans-serif; }
    .hero-subtitle { font: 550 19px -apple-system, BlinkMacSystemFont, "Segoe UI", sans-serif; }
    .chip { font: 700 12px -apple-system, BlinkMacSystemFont, "Segoe UI", sans-serif; }
    @media (prefers-color-scheme: dark) {
      .bg { fill: #0d1117; stroke: #30363d; }
      .panel { fill: #161b22; stroke: #30363d; }
      .panel-strong { fill: #10263a; stroke: #244d70; }
      .ink { fill: #f0f6fc; }
      .muted { fill: #a7b0bc; }
      .faint { fill: #7d8590; }
      .grid { stroke: #30363d; }
      .track { fill: #27313d; }
    }
  </style>
  <rect class="bg" x="1" y="1" width="418" height="1108" rx="22"/>
  <rect x="0" y="0" width="420" height="8" rx="4" fill="url(#accent)"/>
  <text class="title ink" x="22" y="43" style="font-size:23px">Ritmo de desarrollo</text>
  <text class="subtitle muted" x="22" y="65" style="font-size:12px">Actividad Towk desde el repositorio independiente</text>
<g><rect class="panel" x="22" y="82" width="184" height="82" rx="16"/><rect x="22" y="82" width="5" height="82" rx="2.5" fill="#43d8b0"/><text class="kpi ink" x="40" y="121" style="font-size:28px">110</text><text class="small muted" x="40" y="144">commits</text></g>
<g><rect class="panel" x="216" y="82" width="184" height="82" rx="16"/><rect x="216" y="82" width="5" height="82" rx="2.5" fill="#4aa8ff"/><text class="kpi ink" x="234" y="121" style="font-size:28px">92</text><text class="small muted" x="234" y="144">pull requests fusionadas</text></g>
<g><rect class="panel" x="22" y="178" width="184" height="82" rx="16"/><rect x="22" y="178" width="5" height="82" rx="2.5" fill="#7867f2"/><text class="kpi ink" x="40" y="217" style="font-size:28px">9</text><text class="small muted" x="40" y="240">días activos</text></g>
<g><rect class="panel" x="216" y="178" width="184" height="82" rx="16"/><rect x="216" y="178" width="5" height="82" rx="2.5" fill="#f4a261"/><text class="kpi ink" x="234" y="217" style="font-size:28px">2</text><text class="small muted" x="234" y="240">autores humanos de commits</text></g>
  <g><rect class="panel" x="22" y="286" width="376" height="244" rx="18"/><text class="label ink" x="40" y="319">Commits por día</text><text class="small muted" x="40" y="338">Últimos 30 días</text><line class="grid" x1="40" y1="365.0" x2="380" y2="365.0" stroke-width="1"/>
<line class="grid" x1="40" y1="396.3" x2="380" y2="396.3" stroke-width="1"/>
<line class="grid" x1="40" y1="427.5" x2="380" y2="427.5" stroke-width="1"/>
<line class="grid" x1="40" y1="458.8" x2="380" y2="458.8" stroke-width="1"/>
<line class="grid" x1="40" y1="490.0" x2="380" y2="490.0" stroke-width="1"/>
<polygon points="40,490 40.0,490.0 51.7,490.0 63.4,490.0 75.2,490.0 86.9,490.0 98.6,490.0 110.3,490.0 122.1,490.0 133.8,490.0 145.5,490.0 157.2,490.0 169.0,490.0 180.7,490.0 192.4,490.0 204.1,490.0 215.9,490.0 227.6,483.4 239.3,365.0 251.0,447.2 262.8,470.3 274.5,470.3 286.2,490.0 297.9,490.0 309.7,490.0 321.4,490.0 333.1,417.6 344.8,490.0 356.6,457.1 368.3,470.3 380.0,467.0 380,490" fill="#43d8b0" opacity="0.13"/>
<polyline points="40.0,490.0 51.7,490.0 63.4,490.0 75.2,490.0 86.9,490.0 98.6,490.0 110.3,490.0 122.1,490.0 133.8,490.0 145.5,490.0 157.2,490.0 169.0,490.0 180.7,490.0 192.4,490.0 204.1,490.0 215.9,490.0 227.6,483.4 239.3,365.0 251.0,447.2 262.8,470.3 274.5,470.3 286.2,490.0 297.9,490.0 309.7,490.0 321.4,490.0 333.1,417.6 344.8,490.0 356.6,457.1 368.3,470.3 380.0,467.0" fill="none" stroke="#43d8b0" stroke-width="4" stroke-linecap="round" stroke-linejoin="round"/>
<circle cx="227.6" cy="483.4" r="3.2" fill="#43d8b0"/>
<circle cx="239.3" cy="365.0" r="3.2" fill="#43d8b0"/>
<circle cx="251.0" cy="447.2" r="3.2" fill="#43d8b0"/>
<circle cx="262.8" cy="470.3" r="3.2" fill="#43d8b0"/>
<circle cx="274.5" cy="470.3" r="3.2" fill="#43d8b0"/>
<circle cx="333.1" cy="417.6" r="3.2" fill="#43d8b0"/>
<circle cx="356.6" cy="457.1" r="3.2" fill="#43d8b0"/>
<circle cx="368.3" cy="470.3" r="3.2" fill="#43d8b0"/>
<circle cx="380.0" cy="467.0" r="3.2" fill="#43d8b0"/>
<text class="small faint" x="40.0" y="510" text-anchor="middle">25</text>





<text class="small faint" x="110.3" y="510" text-anchor="middle">1</text>





<text class="small faint" x="180.7" y="510" text-anchor="middle">7</text>





<text class="small faint" x="251.0" y="510" text-anchor="middle">13</text>





<text class="small faint" x="321.4" y="510" text-anchor="middle">19</text>




<text class="small faint" x="380.0" y="510" text-anchor="middle">24</text></g>
  <g><rect class="panel" x="22" y="548" width="376" height="214" rx="18"/><text class="label ink" x="40" y="581">Commits por semana</text><text class="small muted" x="40" y="600">Últimas 12 semanas</text><g><rect class="track" x="44.5" y="627" width="19.3" height="92" rx="7.0" opacity="0.44"/><rect x="44.5" y="717.0" width="19.3" height="2.0" rx="7.0" fill="#4aa8ff"/><title>2026-05-04 – 2026-05-10: 0</title><text class="small faint" x="54.2" y="738" text-anchor="middle">04/05</text></g>
<g><rect class="track" x="72.8" y="627" width="19.3" height="92" rx="7.0" opacity="0.44"/><rect x="72.8" y="717.0" width="19.3" height="2.0" rx="7.0" fill="#4aa8ff"/><title>2026-05-11 – 2026-05-17: 0</title></g>
<g><rect class="track" x="101.2" y="627" width="19.3" height="92" rx="7.0" opacity="0.44"/><rect x="101.2" y="717.0" width="19.3" height="2.0" rx="7.0" fill="#4aa8ff"/><title>2026-05-18 – 2026-05-24: 0</title><text class="small faint" x="110.8" y="738" text-anchor="middle">18/05</text></g>
<g><rect class="track" x="129.5" y="627" width="19.3" height="92" rx="7.0" opacity="0.44"/><rect x="129.5" y="717.0" width="19.3" height="2.0" rx="7.0" fill="#4aa8ff"/><title>2026-05-25 – 2026-05-31: 0</title></g>
<g><rect class="track" x="157.8" y="627" width="19.3" height="92" rx="7.0" opacity="0.44"/><rect x="157.8" y="717.0" width="19.3" height="2.0" rx="7.0" fill="#4aa8ff"/><title>2026-06-01 – 2026-06-07: 0</title><text class="small faint" x="167.5" y="738" text-anchor="middle">01/06</text></g>
<g><rect class="track" x="186.2" y="627" width="19.3" height="92" rx="7.0" opacity="0.44"/><rect x="186.2" y="717.0" width="19.3" height="2.0" rx="7.0" fill="#4aa8ff"/><title>2026-06-08 – 2026-06-14: 0</title></g>
<g><rect class="track" x="214.5" y="627" width="19.3" height="92" rx="7.0" opacity="0.44"/><rect x="214.5" y="717.0" width="19.3" height="2.0" rx="7.0" fill="#4aa8ff"/><title>2026-06-15 – 2026-06-21: 0</title><text class="small faint" x="224.2" y="738" text-anchor="middle">15/06</text></g>
<g><rect class="track" x="242.8" y="627" width="19.3" height="92" rx="7.0" opacity="0.44"/><rect x="242.8" y="717.0" width="19.3" height="2.0" rx="7.0" fill="#4aa8ff"/><title>2026-06-22 – 2026-06-28: 0</title></g>
<g><rect class="track" x="271.2" y="627" width="19.3" height="92" rx="7.0" opacity="0.44"/><rect x="271.2" y="717.0" width="19.3" height="2.0" rx="7.0" fill="#4aa8ff"/><title>2026-06-29 – 2026-07-05: 0</title><text class="small faint" x="280.8" y="738" text-anchor="middle">29/06</text></g>
<g><rect class="track" x="299.5" y="627" width="19.3" height="92" rx="7.0" opacity="0.44"/><rect x="299.5" y="637.2" width="19.3" height="81.8" rx="7.0" fill="#4aa8ff"/><title>2026-07-06 – 2026-07-12: 40</title></g>
<g><rect class="track" x="327.8" y="627" width="19.3" height="92" rx="7.0" opacity="0.44"/><rect x="327.8" y="667.9" width="19.3" height="51.1" rx="7.0" fill="#4aa8ff"/><title>2026-07-13 – 2026-07-19: 25</title><text class="small faint" x="337.5" y="738" text-anchor="middle">13/07</text></g>
<g><rect class="track" x="356.2" y="627" width="19.3" height="92" rx="7.0" opacity="0.44"/><rect x="356.2" y="627.0" width="19.3" height="92.0" rx="7.0" fill="#4aa8ff"/><title>2026-07-20 – 2026-07-26: 45</title></g></g>
  <g><rect class="panel" x="22" y="780" width="376" height="142" rx="18"/><text class="label ink" x="40" y="813">Commits por mes</text><g><rect class="track" x="44.0" y="836" width="20.3" height="52" rx="7.0" opacity="0.44"/><rect x="44.0" y="886.0" width="20.3" height="2.0" rx="7.0" fill="#43d8b0"/><title>Ago 2025: 0</title><text class="small faint" x="54.2" y="907" text-anchor="middle">Ago</text></g>
<g><rect class="track" x="72.3" y="836" width="20.3" height="52" rx="7.0" opacity="0.44"/><rect x="72.3" y="886.0" width="20.3" height="2.0" rx="7.0" fill="#43d8b0"/><title>Sep 2025: 0</title></g>
<g><rect class="track" x="100.7" y="836" width="20.3" height="52" rx="7.0" opacity="0.44"/><rect x="100.7" y="886.0" width="20.3" height="2.0" rx="7.0" fill="#43d8b0"/><title>Oct 2025: 0</title><text class="small faint" x="110.8" y="907" text-anchor="middle">Oct</text></g>
<g><rect class="track" x="129.0" y="836" width="20.3" height="52" rx="7.0" opacity="0.44"/><rect x="129.0" y="886.0" width="20.3" height="2.0" rx="7.0" fill="#43d8b0"/><title>Nov 2025: 0</title></g>
<g><rect class="track" x="157.3" y="836" width="20.3" height="52" rx="7.0" opacity="0.44"/><rect x="157.3" y="886.0" width="20.3" height="2.0" rx="7.0" fill="#43d8b0"/><title>Dic 2025: 0</title><text class="small faint" x="167.5" y="907" text-anchor="middle">Dic</text></g>
<g><rect class="track" x="185.7" y="836" width="20.3" height="52" rx="7.0" opacity="0.44"/><rect x="185.7" y="886.0" width="20.3" height="2.0" rx="7.0" fill="#43d8b0"/><title>Ene 2026: 0</title></g>
<g><rect class="track" x="214.0" y="836" width="20.3" height="52" rx="7.0" opacity="0.44"/><rect x="214.0" y="886.0" width="20.3" height="2.0" rx="7.0" fill="#43d8b0"/><title>Feb 2026: 0</title><text class="small faint" x="224.2" y="907" text-anchor="middle">Feb</text></g>
<g><rect class="track" x="242.3" y="836" width="20.3" height="52" rx="7.0" opacity="0.44"/><rect x="242.3" y="886.0" width="20.3" height="2.0" rx="7.0" fill="#43d8b0"/><title>Mar 2026: 0</title></g>
<g><rect class="track" x="270.7" y="836" width="20.3" height="52" rx="7.0" opacity="0.44"/><rect x="270.7" y="886.0" width="20.3" height="2.0" rx="7.0" fill="#43d8b0"/><title>Abr 2026: 0</title><text class="small faint" x="280.8" y="907" text-anchor="middle">Abr</text></g>
<g><rect class="track" x="299.0" y="836" width="20.3" height="52" rx="7.0" opacity="0.44"/><rect x="299.0" y="886.0" width="20.3" height="2.0" rx="7.0" fill="#43d8b0"/><title>May 2026: 0</title></g>
<g><rect class="track" x="327.3" y="836" width="20.3" height="52" rx="7.0" opacity="0.44"/><rect x="327.3" y="886.0" width="20.3" height="2.0" rx="7.0" fill="#43d8b0"/><title>Jun 2026: 0</title><text class="small faint" x="337.5" y="907" text-anchor="middle">Jun</text></g>
<g><rect class="track" x="355.7" y="836" width="20.3" height="52" rx="7.0" opacity="0.44"/><rect x="355.7" y="836.0" width="20.3" height="52.0" rx="7.0" fill="#43d8b0"/><title>Jul 2026: 110</title></g></g>
  <g><rect class="panel" x="22" y="940" width="376" height="142" rx="18"/><text class="label ink" x="40" y="973">PR fusionadas por mes</text><g><rect class="track" x="44.0" y="996" width="20.3" height="52" rx="7.0" opacity="0.44"/><rect x="44.0" y="1046.0" width="20.3" height="2.0" rx="7.0" fill="#7867f2"/><title>Ago 2025: 0</title><text class="small faint" x="54.2" y="1067" text-anchor="middle">Ago</text></g>
<g><rect class="track" x="72.3" y="996" width="20.3" height="52" rx="7.0" opacity="0.44"/><rect x="72.3" y="1046.0" width="20.3" height="2.0" rx="7.0" fill="#7867f2"/><title>Sep 2025: 0</title></g>
<g><rect class="track" x="100.7" y="996" width="20.3" height="52" rx="7.0" opacity="0.44"/><rect x="100.7" y="1046.0" width="20.3" height="2.0" rx="7.0" fill="#7867f2"/><title>Oct 2025: 0</title><text class="small faint" x="110.8" y="1067" text-anchor="middle">Oct</text></g>
<g><rect class="track" x="129.0" y="996" width="20.3" height="52" rx="7.0" opacity="0.44"/><rect x="129.0" y="1046.0" width="20.3" height="2.0" rx="7.0" fill="#7867f2"/><title>Nov 2025: 0</title></g>
<g><rect class="track" x="157.3" y="996" width="20.3" height="52" rx="7.0" opacity="0.44"/><rect x="157.3" y="1046.0" width="20.3" height="2.0" rx="7.0" fill="#7867f2"/><title>Dic 2025: 0</title><text class="small faint" x="167.5" y="1067" text-anchor="middle">Dic</text></g>
<g><rect class="track" x="185.7" y="996" width="20.3" height="52" rx="7.0" opacity="0.44"/><rect x="185.7" y="1046.0" width="20.3" height="2.0" rx="7.0" fill="#7867f2"/><title>Ene 2026: 0</title></g>
<g><rect class="track" x="214.0" y="996" width="20.3" height="52" rx="7.0" opacity="0.44"/><rect x="214.0" y="1046.0" width="20.3" height="2.0" rx="7.0" fill="#7867f2"/><title>Feb 2026: 0</title><text class="small faint" x="224.2" y="1067" text-anchor="middle">Feb</text></g>
<g><rect class="track" x="242.3" y="996" width="20.3" height="52" rx="7.0" opacity="0.44"/><rect x="242.3" y="1046.0" width="20.3" height="2.0" rx="7.0" fill="#7867f2"/><title>Mar 2026: 0</title></g>
<g><rect class="track" x="270.7" y="996" width="20.3" height="52" rx="7.0" opacity="0.44"/><rect x="270.7" y="1046.0" width="20.3" height="2.0" rx="7.0" fill="#7867f2"/><title>Abr 2026: 0</title><text class="small faint" x="280.8" y="1067" text-anchor="middle">Abr</text></g>
<g><rect class="track" x="299.0" y="996" width="20.3" height="52" rx="7.0" opacity="0.44"/><rect x="299.0" y="1046.0" width="20.3" height="2.0" rx="7.0" fill="#7867f2"/><title>May 2026: 0</title></g>
<g><rect class="track" x="327.3" y="996" width="20.3" height="52" rx="7.0" opacity="0.44"/><rect x="327.3" y="1046.0" width="20.3" height="2.0" rx="7.0" fill="#7867f2"/><title>Jun 2026: 0</title><text class="small faint" x="337.5" y="1067" text-anchor="middle">Jun</text></g>
<g><rect class="track" x="355.7" y="996" width="20.3" height="52" rx="7.0" opacity="0.44"/><rect x="355.7" y="996.0" width="20.3" height="52.0" rx="7.0" fill="#7867f2"/><title>Jul 2026: 92</title></g></g>
  <text class="small faint" x="22" y="1098">Actualizado 24 jul 2026, 23:41</text>
</svg>
