<svg xmlns="http://www.w3.org/2000/svg" width="1200" height="850" viewBox="0 0 1200 850" role="img" aria-labelledby="title desc">
<title id="title">Atividade do repositório Towk nos últimos 30 dias UTC</title><desc id="desc">Commits diários, pull requests integradas, issues fechadas, movimento de código e fluxo de pull requests no ramo predefinido.</desc>
<defs><linearGradient id="accent" x1="0" y1="0" x2="1" y2="0"><stop offset="0%" stop-color="#43d8b0"/><stop offset="50%" stop-color="#4aa8ff"/><stop offset="100%" stop-color="#7867f2"/></linearGradient><linearGradient id="soft" x1="0" y1="0" x2="1" y2="1"><stop offset="0%" stop-color="#43d8b0" stop-opacity=".18"/><stop offset="100%" stop-color="#7867f2" stop-opacity=".12"/></linearGradient></defs><style>
.bg{fill:#fff;stroke:#d0d7de}.surface{fill:#f6f8fa;stroke:#d8dee4}.strong{fill:#eef7ff;stroke:#b6d8ff}.ink{fill:#162033}.muted{fill:#667085}.faint{fill:#98a2b3}.grid{stroke:#dfe5ec}.track{fill:#e7edf3}
.meta{font:750 11px -apple-system,BlinkMacSystemFont,"Segoe UI",sans-serif;letter-spacing:1.1px}.value{font:820 31px -apple-system,BlinkMacSystemFont,"Segoe UI",sans-serif}.label{font:720 13px -apple-system,BlinkMacSystemFont,"Segoe UI",sans-serif}.scope{font:520 10px -apple-system,BlinkMacSystemFont,"Segoe UI",sans-serif}.chart-title{font:760 14px -apple-system,BlinkMacSystemFont,"Segoe UI",sans-serif}.chart-subtitle{font:520 11px -apple-system,BlinkMacSystemFont,"Segoe UI",sans-serif}.small{font:540 10px -apple-system,BlinkMacSystemFont,"Segoe UI",sans-serif}.flow-value{font:780 17px -apple-system,BlinkMacSystemFont,"Segoe UI",sans-serif}
@media(prefers-color-scheme:dark){.bg{fill:#0d1117;stroke:#30363d}.surface{fill:#161b22;stroke:#30363d}.strong{fill:#10263a;stroke:#244d70}.ink{fill:#f0f6fc}.muted{fill:#a7b0bc}.faint{fill:#7d8590}.grid{stroke:#30363d}.track{fill:#27313d}}
</style><rect class="bg" x="1" y="1" width="1198" height="848" rx="22"/><rect x="0" y="0" width="1200" height="8" rx="4" fill="url(#accent)"/><text class="meta" x="28" y="34" fill="#4aa8ff">MAIN · ÚLTIMOS 30 DIAS · UTC</text><text class="small faint" x="1172" y="34" text-anchor="end">Atualizado 05/08/2026, 19:55</text><g><rect class="surface" x="28" y="52" width="277" height="100" rx="17"/><rect x="28" y="52" width="6" height="100" rx="3" fill="#43d8b0"/><text class="value ink" x="50" y="92" style="font-size:31px">170</text><text class="label ink" x="50" y="117" style="font-size:13px">Commits</text><text class="scope muted" x="50" y="137" style="font-size:10px">ramo predefinido</text></g><g><rect class="surface" x="317" y="52" width="277" height="100" rx="17"/><rect x="317" y="52" width="6" height="100" rx="3" fill="#4aa8ff"/><text class="value ink" x="339" y="92" style="font-size:31px">152</text><text class="label ink" x="339" y="117" style="font-size:13px">PR integradas</text><text class="scope muted" x="339" y="137" style="font-size:10px">integradas em main</text></g><g><rect class="surface" x="606" y="52" width="277" height="100" rx="17"/><rect x="606" y="52" width="6" height="100" rx="3" fill="#7867f2"/><text class="value ink" x="628" y="92" style="font-size:31px">106</text><text class="label ink" x="628" y="117" style="font-size:13px">Issues fechadas</text><text class="scope muted" x="628" y="137" style="font-size:10px">pull requests excluídas</text></g><g><rect class="surface" x="895" y="52" width="277" height="100" rx="17"/><rect x="895" y="52" width="6" height="100" rx="3" fill="#f4a261"/><text class="value ink" x="917" y="92" style="font-size:31px">2</text><text class="label ink" x="917" y="117" style="font-size:13px">Colaboradores ativos</text><text class="scope muted" x="917" y="137" style="font-size:10px">autores humanos de commits / PR</text></g><g><rect class="strong" x="28" y="168" width="1144" height="52" rx="16" fill="url(#soft)"/><text class="label muted" x="50" y="190">Mediana até à integração</text><text class="flow-value ink" x="50" y="210">5,4 h</text><line class="grid" x1="300" y1="180" x2="300" y2="208"/><text class="label muted" x="326" y="190">Mediana até à primeira revisão</text><text class="flow-value ink" x="326" y="210">—</text><text class="scope muted" x="1148" y="200" text-anchor="end">O dia UTC atual está incompleto</text></g><g><rect class="surface" x="28" y="236" width="564" height="270" rx="19"/><text class="chart-title ink" x="50" y="270">Entrega diária</text><text class="chart-subtitle muted" x="50" y="290">Commits e pull requests integradas</text><line class="grid" x1="50" y1="312.0" x2="570" y2="312.0"/><line class="grid" x1="50" y1="360.3" x2="570" y2="360.3"/><line class="grid" x1="50" y1="408.7" x2="570" y2="408.7"/><line class="grid" x1="50" y1="457.0" x2="570" y2="457.0"/><rect x="52.3" y="455.5" width="5.4" height="1.5" rx="2" fill="#43d8b0"><title>2026-07-07 · Commits: 0</title></rect><rect x="59.7" y="455.5" width="5.4" height="1.5" rx="2" fill="#4aa8ff"><title>2026-07-07 · PR integradas: 0</title></rect><rect x="69.6" y="455.5" width="5.4" height="1.5" rx="2" fill="#43d8b0"><title>2026-07-08 · Commits: 0</title></rect><rect x="77.0" y="455.5" width="5.4" height="1.5" rx="2" fill="#4aa8ff"><title>2026-07-08 · PR integradas: 0</title></rect><rect x="87.0" y="455.5" width="5.4" height="1.5" rx="2" fill="#43d8b0"><title>2026-07-09 · Commits: 0</title></rect><rect x="94.3" y="455.5" width="5.4" height="1.5" rx="2" fill="#4aa8ff"><title>2026-07-09 · PR integradas: 0</title></rect><rect x="104.3" y="455.5" width="5.4" height="1.5" rx="2" fill="#43d8b0"><title>2026-07-10 · Commits: 0</title></rect><rect x="111.7" y="455.5" width="5.4" height="1.5" rx="2" fill="#4aa8ff"><title>2026-07-10 · PR integradas: 0</title></rect><rect x="121.6" y="449.4" width="5.4" height="7.6" rx="2" fill="#43d8b0"><title>2026-07-11 · Commits: 2</title></rect><rect x="129.0" y="455.5" width="5.4" height="1.5" rx="2" fill="#4aa8ff"><title>2026-07-11 · PR integradas: 0</title></rect><rect x="139.0" y="312.0" width="5.4" height="145.0" rx="2" fill="#43d8b0"><title>2026-07-12 · Commits: 38</title></rect><rect x="146.3" y="373.1" width="5.4" height="83.9" rx="2" fill="#4aa8ff"><title>2026-07-12 · PR integradas: 22</title></rect><rect x="156.3" y="407.4" width="5.4" height="49.6" rx="2" fill="#43d8b0"><title>2026-07-13 · Commits: 13</title></rect><rect x="163.7" y="407.4" width="5.4" height="49.6" rx="2" fill="#4aa8ff"><title>2026-07-13 · PR integradas: 13</title></rect><rect x="173.6" y="434.1" width="5.4" height="22.9" rx="2" fill="#43d8b0"><title>2026-07-14 · Commits: 6</title></rect><rect x="181.0" y="434.1" width="5.4" height="22.9" rx="2" fill="#4aa8ff"><title>2026-07-14 · PR integradas: 6</title></rect><rect x="191.0" y="434.1" width="5.4" height="22.9" rx="2" fill="#43d8b0"><title>2026-07-15 · Commits: 6</title></rect><rect x="198.3" y="434.1" width="5.4" height="22.9" rx="2" fill="#4aa8ff"><title>2026-07-15 · PR integradas: 6</title></rect><rect x="208.3" y="455.5" width="5.4" height="1.5" rx="2" fill="#43d8b0"><title>2026-07-16 · Commits: 0</title></rect><rect x="215.7" y="455.5" width="5.4" height="1.5" rx="2" fill="#4aa8ff"><title>2026-07-16 · PR integradas: 0</title></rect><rect x="225.6" y="455.5" width="5.4" height="1.5" rx="2" fill="#43d8b0"><title>2026-07-17 · Commits: 0</title></rect><rect x="233.0" y="455.5" width="5.4" height="1.5" rx="2" fill="#4aa8ff"><title>2026-07-17 · PR integradas: 0</title></rect><rect x="243.0" y="455.5" width="5.4" height="1.5" rx="2" fill="#43d8b0"><title>2026-07-18 · Commits: 0</title></rect><rect x="250.3" y="455.5" width="5.4" height="1.5" rx="2" fill="#4aa8ff"><title>2026-07-18 · PR integradas: 0</title></rect><rect x="260.3" y="455.5" width="5.4" height="1.5" rx="2" fill="#43d8b0"><title>2026-07-19 · Commits: 0</title></rect><rect x="267.7" y="455.5" width="5.4" height="1.5" rx="2" fill="#4aa8ff"><title>2026-07-19 · PR integradas: 0</title></rect><rect x="277.6" y="373.1" width="5.4" height="83.9" rx="2" fill="#43d8b0"><title>2026-07-20 · Commits: 22</title></rect><rect x="285.0" y="373.1" width="5.4" height="83.9" rx="2" fill="#4aa8ff"><title>2026-07-20 · PR integradas: 22</title></rect><rect x="295.0" y="455.5" width="5.4" height="1.5" rx="2" fill="#43d8b0"><title>2026-07-21 · Commits: 0</title></rect><rect x="302.3" y="455.5" width="5.4" height="1.5" rx="2" fill="#4aa8ff"><title>2026-07-21 · PR integradas: 0</title></rect><rect x="312.3" y="418.8" width="5.4" height="38.2" rx="2" fill="#43d8b0"><title>2026-07-22 · Commits: 10</title></rect><rect x="319.7" y="418.8" width="5.4" height="38.2" rx="2" fill="#4aa8ff"><title>2026-07-22 · PR integradas: 10</title></rect><rect x="329.6" y="434.1" width="5.4" height="22.9" rx="2" fill="#43d8b0"><title>2026-07-23 · Commits: 6</title></rect><rect x="337.0" y="434.1" width="5.4" height="22.9" rx="2" fill="#4aa8ff"><title>2026-07-23 · PR integradas: 6</title></rect><rect x="347.0" y="415.0" width="5.4" height="42.0" rx="2" fill="#43d8b0"><title>2026-07-24 · Commits: 11</title></rect><rect x="354.3" y="415.0" width="5.4" height="42.0" rx="2" fill="#4aa8ff"><title>2026-07-24 · PR integradas: 11</title></rect><rect x="364.3" y="453.2" width="5.4" height="3.8" rx="2" fill="#43d8b0"><title>2026-07-25 · Commits: 1</title></rect><rect x="371.7" y="453.2" width="5.4" height="3.8" rx="2" fill="#4aa8ff"><title>2026-07-25 · PR integradas: 1</title></rect><rect x="381.6" y="434.1" width="5.4" height="22.9" rx="2" fill="#43d8b0"><title>2026-07-26 · Commits: 6</title></rect><rect x="389.0" y="434.1" width="5.4" height="22.9" rx="2" fill="#4aa8ff"><title>2026-07-26 · PR integradas: 6</title></rect><rect x="399.0" y="411.2" width="5.4" height="45.8" rx="2" fill="#43d8b0"><title>2026-07-27 · Commits: 12</title></rect><rect x="406.3" y="411.2" width="5.4" height="45.8" rx="2" fill="#4aa8ff"><title>2026-07-27 · PR integradas: 12</title></rect><rect x="416.3" y="455.5" width="5.4" height="1.5" rx="2" fill="#43d8b0"><title>2026-07-28 · Commits: 0</title></rect><rect x="423.7" y="455.5" width="5.4" height="1.5" rx="2" fill="#4aa8ff"><title>2026-07-28 · PR integradas: 0</title></rect><rect x="433.6" y="455.5" width="5.4" height="1.5" rx="2" fill="#43d8b0"><title>2026-07-29 · Commits: 0</title></rect><rect x="441.0" y="455.5" width="5.4" height="1.5" rx="2" fill="#4aa8ff"><title>2026-07-29 · PR integradas: 0</title></rect><rect x="451.0" y="455.5" width="5.4" height="1.5" rx="2" fill="#43d8b0"><title>2026-07-30 · Commits: 0</title></rect><rect x="458.3" y="455.5" width="5.4" height="1.5" rx="2" fill="#4aa8ff"><title>2026-07-30 · PR integradas: 0</title></rect><rect x="468.3" y="434.1" width="5.4" height="22.9" rx="2" fill="#43d8b0"><title>2026-07-31 · Commits: 6</title></rect><rect x="475.7" y="434.1" width="5.4" height="22.9" rx="2" fill="#4aa8ff"><title>2026-07-31 · PR integradas: 6</title></rect><rect x="485.6" y="437.9" width="5.4" height="19.1" rx="2" fill="#43d8b0"><title>2026-08-01 · Commits: 5</title></rect><rect x="493.0" y="437.9" width="5.4" height="19.1" rx="2" fill="#4aa8ff"><title>2026-08-01 · PR integradas: 5</title></rect><rect x="503.0" y="388.3" width="5.4" height="68.7" rx="2" fill="#43d8b0"><title>2026-08-02 · Commits: 18</title></rect><rect x="510.3" y="388.3" width="5.4" height="68.7" rx="2" fill="#4aa8ff"><title>2026-08-02 · PR integradas: 18</title></rect><rect x="520.3" y="426.5" width="5.4" height="30.5" rx="2" fill="#43d8b0"><title>2026-08-03 · Commits: 8</title></rect><rect x="527.7" y="426.5" width="5.4" height="30.5" rx="2" fill="#4aa8ff"><title>2026-08-03 · PR integradas: 8</title></rect><rect x="537.6" y="455.5" width="5.4" height="1.5" rx="2" fill="#43d8b0"><title>2026-08-04 · Commits: 0</title></rect><rect x="545.0" y="455.5" width="5.4" height="1.5" rx="2" fill="#4aa8ff"><title>2026-08-04 · PR integradas: 0</title></rect><rect x="555.0" y="455.5" width="5.4" height="1.5" rx="2" fill="#43d8b0"><title>2026-08-05 · Commits: 0</title></rect><rect x="562.3" y="455.5" width="5.4" height="1.5" rx="2" fill="#4aa8ff"><title>2026-08-05 · PR integradas: 0</title></rect><text class="small faint" x="50.0" y="482" text-anchor="middle">7</text><text class="small faint" x="139.7" y="482" text-anchor="middle">12</text><text class="small faint" x="229.3" y="482" text-anchor="middle">17</text><text class="small faint" x="319.0" y="482" text-anchor="middle">22</text><text class="small faint" x="408.6" y="482" text-anchor="middle">27</text><text class="small faint" x="498.3" y="482" text-anchor="middle">1</text><text class="small faint" x="570.0" y="482" text-anchor="middle">5</text></g><g><rect class="surface" x="608" y="236" width="564" height="270" rx="19"/><text class="chart-title ink" x="630" y="270">Ritmo das issues</text><text class="chart-subtitle muted" x="630" y="290">Issues fechadas por dia UTC</text><line class="grid" x1="630" y1="312.0" x2="1150" y2="312.0"/><line class="grid" x1="630" y1="360.3" x2="1150" y2="360.3"/><line class="grid" x1="630" y1="408.7" x2="1150" y2="408.7"/><line class="grid" x1="630" y1="457.0" x2="1150" y2="457.0"/><g><rect class="track" x="633.7" y="312" width="10.0" height="145" rx="3" opacity=".3"/><rect x="633.7" y="455.5" width="10.0" height="1.5" rx="3" fill="#7867f2"><title>2026-07-07 · Issues fechadas: 0</title></rect></g><g><rect class="track" x="651.0" y="312" width="10.0" height="145" rx="3" opacity=".3"/><rect x="651.0" y="455.5" width="10.0" height="1.5" rx="3" fill="#7867f2"><title>2026-07-08 · Issues fechadas: 0</title></rect></g><g><rect class="track" x="668.3" y="312" width="10.0" height="145" rx="3" opacity=".3"/><rect x="668.3" y="455.5" width="10.0" height="1.5" rx="3" fill="#7867f2"><title>2026-07-09 · Issues fechadas: 0</title></rect></g><g><rect class="track" x="685.7" y="312" width="10.0" height="145" rx="3" opacity=".3"/><rect x="685.7" y="455.5" width="10.0" height="1.5" rx="3" fill="#7867f2"><title>2026-07-10 · Issues fechadas: 0</title></rect></g><g><rect class="track" x="703.0" y="312" width="10.0" height="145" rx="3" opacity=".3"/><rect x="703.0" y="455.5" width="10.0" height="1.5" rx="3" fill="#7867f2"><title>2026-07-11 · Issues fechadas: 0</title></rect></g><g><rect class="track" x="720.3" y="312" width="10.0" height="145" rx="3" opacity=".3"/><rect x="720.3" y="455.5" width="10.0" height="1.5" rx="3" fill="#7867f2"><title>2026-07-12 · Issues fechadas: 0</title></rect></g><g><rect class="track" x="737.7" y="312" width="10.0" height="145" rx="3" opacity=".3"/><rect x="737.7" y="449.4" width="10.0" height="7.6" rx="3" fill="#7867f2"><title>2026-07-13 · Issues fechadas: 1</title></rect></g><g><rect class="track" x="755.0" y="312" width="10.0" height="145" rx="3" opacity=".3"/><rect x="755.0" y="434.1" width="10.0" height="22.9" rx="3" fill="#7867f2"><title>2026-07-14 · Issues fechadas: 3</title></rect></g><g><rect class="track" x="772.3" y="312" width="10.0" height="145" rx="3" opacity=".3"/><rect x="772.3" y="312.0" width="10.0" height="145.0" rx="3" fill="#7867f2"><title>2026-07-15 · Issues fechadas: 19</title></rect></g><g><rect class="track" x="789.7" y="312" width="10.0" height="145" rx="3" opacity=".3"/><rect x="789.7" y="455.5" width="10.0" height="1.5" rx="3" fill="#7867f2"><title>2026-07-16 · Issues fechadas: 0</title></rect></g><g><rect class="track" x="807.0" y="312" width="10.0" height="145" rx="3" opacity=".3"/><rect x="807.0" y="455.5" width="10.0" height="1.5" rx="3" fill="#7867f2"><title>2026-07-17 · Issues fechadas: 0</title></rect></g><g><rect class="track" x="824.3" y="312" width="10.0" height="145" rx="3" opacity=".3"/><rect x="824.3" y="455.5" width="10.0" height="1.5" rx="3" fill="#7867f2"><title>2026-07-18 · Issues fechadas: 0</title></rect></g><g><rect class="track" x="841.7" y="312" width="10.0" height="145" rx="3" opacity=".3"/><rect x="841.7" y="455.5" width="10.0" height="1.5" rx="3" fill="#7867f2"><title>2026-07-19 · Issues fechadas: 0</title></rect></g><g><rect class="track" x="859.0" y="312" width="10.0" height="145" rx="3" opacity=".3"/><rect x="859.0" y="334.9" width="10.0" height="122.1" rx="3" fill="#7867f2"><title>2026-07-20 · Issues fechadas: 16</title></rect></g><g><rect class="track" x="876.3" y="312" width="10.0" height="145" rx="3" opacity=".3"/><rect x="876.3" y="455.5" width="10.0" height="1.5" rx="3" fill="#7867f2"><title>2026-07-21 · Issues fechadas: 0</title></rect></g><g><rect class="track" x="893.7" y="312" width="10.0" height="145" rx="3" opacity=".3"/><rect x="893.7" y="380.7" width="10.0" height="76.3" rx="3" fill="#7867f2"><title>2026-07-22 · Issues fechadas: 10</title></rect></g><g><rect class="track" x="911.0" y="312" width="10.0" height="145" rx="3" opacity=".3"/><rect x="911.0" y="455.5" width="10.0" height="1.5" rx="3" fill="#7867f2"><title>2026-07-23 · Issues fechadas: 0</title></rect></g><g><rect class="track" x="928.3" y="312" width="10.0" height="145" rx="3" opacity=".3"/><rect x="928.3" y="357.8" width="10.0" height="99.2" rx="3" fill="#7867f2"><title>2026-07-24 · Issues fechadas: 13</title></rect></g><g><rect class="track" x="945.7" y="312" width="10.0" height="145" rx="3" opacity=".3"/><rect x="945.7" y="449.4" width="10.0" height="7.6" rx="3" fill="#7867f2"><title>2026-07-25 · Issues fechadas: 1</title></rect></g><g><rect class="track" x="963.0" y="312" width="10.0" height="145" rx="3" opacity=".3"/><rect x="963.0" y="411.2" width="10.0" height="45.8" rx="3" fill="#7867f2"><title>2026-07-26 · Issues fechadas: 6</title></rect></g><g><rect class="track" x="980.3" y="312" width="10.0" height="145" rx="3" opacity=".3"/><rect x="980.3" y="403.6" width="10.0" height="53.4" rx="3" fill="#7867f2"><title>2026-07-27 · Issues fechadas: 7</title></rect></g><g><rect class="track" x="997.7" y="312" width="10.0" height="145" rx="3" opacity=".3"/><rect x="997.7" y="455.5" width="10.0" height="1.5" rx="3" fill="#7867f2"><title>2026-07-28 · Issues fechadas: 0</title></rect></g><g><rect class="track" x="1015.0" y="312" width="10.0" height="145" rx="3" opacity=".3"/><rect x="1015.0" y="455.5" width="10.0" height="1.5" rx="3" fill="#7867f2"><title>2026-07-29 · Issues fechadas: 0</title></rect></g><g><rect class="track" x="1032.3" y="312" width="10.0" height="145" rx="3" opacity=".3"/><rect x="1032.3" y="455.5" width="10.0" height="1.5" rx="3" fill="#7867f2"><title>2026-07-30 · Issues fechadas: 0</title></rect></g><g><rect class="track" x="1049.7" y="312" width="10.0" height="145" rx="3" opacity=".3"/><rect x="1049.7" y="411.2" width="10.0" height="45.8" rx="3" fill="#7867f2"><title>2026-07-31 · Issues fechadas: 6</title></rect></g><g><rect class="track" x="1067.0" y="312" width="10.0" height="145" rx="3" opacity=".3"/><rect x="1067.0" y="426.5" width="10.0" height="30.5" rx="3" fill="#7867f2"><title>2026-08-01 · Issues fechadas: 4</title></rect></g><g><rect class="track" x="1084.3" y="312" width="10.0" height="145" rx="3" opacity=".3"/><rect x="1084.3" y="334.9" width="10.0" height="122.1" rx="3" fill="#7867f2"><title>2026-08-02 · Issues fechadas: 16</title></rect></g><g><rect class="track" x="1101.7" y="312" width="10.0" height="145" rx="3" opacity=".3"/><rect x="1101.7" y="426.5" width="10.0" height="30.5" rx="3" fill="#7867f2"><title>2026-08-03 · Issues fechadas: 4</title></rect></g><g><rect class="track" x="1119.0" y="312" width="10.0" height="145" rx="3" opacity=".3"/><rect x="1119.0" y="455.5" width="10.0" height="1.5" rx="3" fill="#7867f2"><title>2026-08-04 · Issues fechadas: 0</title></rect></g><g><rect class="track" x="1136.3" y="312" width="10.0" height="145" rx="3" opacity=".3"/><rect x="1136.3" y="455.5" width="10.0" height="1.5" rx="3" fill="#7867f2"><title>2026-08-05 · Issues fechadas: 0</title></rect></g><text class="small faint" x="630.0" y="482" text-anchor="middle">7</text><text class="small faint" x="719.7" y="482" text-anchor="middle">12</text><text class="small faint" x="809.3" y="482" text-anchor="middle">17</text><text class="small faint" x="899.0" y="482" text-anchor="middle">22</text><text class="small faint" x="988.6" y="482" text-anchor="middle">27</text><text class="small faint" x="1078.3" y="482" text-anchor="middle">1</text><text class="small faint" x="1150.0" y="482" text-anchor="middle">5</text></g><g><rect class="surface" x="28" y="522" width="564" height="270" rx="19"/><text class="chart-title ink" x="50" y="556">Movimento do código</text><text class="chart-subtitle muted" x="50" y="576">Linhas adicionadas e removidas em main</text><text class="small muted" x="570" y="556" text-anchor="end">+190 026 · −50 536 · 3515 ficheiros modificados</text><line class="grid" x1="50" y1="598.0" x2="570" y2="598.0"/><line class="grid" x1="50" y1="634.3" x2="570" y2="634.3"/><line class="grid" x1="50" y1="670.5" x2="570" y2="670.5"/><line class="grid" x1="50" y1="706.8" x2="570" y2="706.8"/><line class="grid" x1="50" y1="743.0" x2="570" y2="743.0"/><line class="grid" x1="50" y1="670.5" x2="570" y2="670.5" stroke-width="1.5"/><rect x="53.7" y="670.5" width="10.0" height="0.0" rx="2" fill="#43d8b0"><title>2026-07-07 · Adições: 0</title></rect><rect x="53.7" y="670.5" width="10.0" height="0.0" rx="2" fill="#7867f2"><title>2026-07-07 · Remoções: 0</title></rect><rect x="71.0" y="670.5" width="10.0" height="0.0" rx="2" fill="#43d8b0"><title>2026-07-08 · Adições: 0</title></rect><rect x="71.0" y="670.5" width="10.0" height="0.0" rx="2" fill="#7867f2"><title>2026-07-08 · Remoções: 0</title></rect><rect x="88.3" y="670.5" width="10.0" height="0.0" rx="2" fill="#43d8b0"><title>2026-07-09 · Adições: 0</title></rect><rect x="88.3" y="670.5" width="10.0" height="0.0" rx="2" fill="#7867f2"><title>2026-07-09 · Remoções: 0</title></rect><rect x="105.7" y="670.5" width="10.0" height="0.0" rx="2" fill="#43d8b0"><title>2026-07-10 · Adições: 0</title></rect><rect x="105.7" y="670.5" width="10.0" height="0.0" rx="2" fill="#7867f2"><title>2026-07-10 · Remoções: 0</title></rect><rect x="123.0" y="668.5" width="10.0" height="2.0" rx="2" fill="#43d8b0"><title>2026-07-11 · Adições: 783</title></rect><rect x="123.0" y="670.5" width="10.0" height="2.0" rx="2" fill="#7867f2"><title>2026-07-11 · Remoções: 91</title></rect><rect x="140.3" y="659.6" width="10.0" height="10.9" rx="2" fill="#43d8b0"><title>2026-07-12 · Adições: 7047</title></rect><rect x="140.3" y="670.5" width="10.0" height="2.0" rx="2" fill="#7867f2"><title>2026-07-12 · Remoções: 1275</title></rect><rect x="157.7" y="655.3" width="10.0" height="15.2" rx="2" fill="#43d8b0"><title>2026-07-13 · Adições: 9849</title></rect><rect x="157.7" y="670.5" width="10.0" height="10.1" rx="2" fill="#7867f2"><title>2026-07-13 · Remoções: 6569</title></rect><rect x="175.0" y="659.5" width="10.0" height="11.0" rx="2" fill="#43d8b0"><title>2026-07-14 · Adições: 7123</title></rect><rect x="175.0" y="670.5" width="10.0" height="2.0" rx="2" fill="#7867f2"><title>2026-07-14 · Remoções: 829</title></rect><rect x="192.3" y="635.7" width="10.0" height="34.8" rx="2" fill="#43d8b0"><title>2026-07-15 · Adições: 22558</title></rect><rect x="192.3" y="670.5" width="10.0" height="3.1" rx="2" fill="#7867f2"><title>2026-07-15 · Remoções: 2038</title></rect><rect x="209.7" y="670.5" width="10.0" height="0.0" rx="2" fill="#43d8b0"><title>2026-07-16 · Adições: 0</title></rect><rect x="209.7" y="670.5" width="10.0" height="0.0" rx="2" fill="#7867f2"><title>2026-07-16 · Remoções: 0</title></rect><rect x="227.0" y="670.5" width="10.0" height="0.0" rx="2" fill="#43d8b0"><title>2026-07-17 · Adições: 0</title></rect><rect x="227.0" y="670.5" width="10.0" height="0.0" rx="2" fill="#7867f2"><title>2026-07-17 · Remoções: 0</title></rect><rect x="244.3" y="670.5" width="10.0" height="0.0" rx="2" fill="#43d8b0"><title>2026-07-18 · Adições: 0</title></rect><rect x="244.3" y="670.5" width="10.0" height="0.0" rx="2" fill="#7867f2"><title>2026-07-18 · Remoções: 0</title></rect><rect x="261.7" y="670.5" width="10.0" height="0.0" rx="2" fill="#43d8b0"><title>2026-07-19 · Adições: 0</title></rect><rect x="261.7" y="670.5" width="10.0" height="0.0" rx="2" fill="#7867f2"><title>2026-07-19 · Remoções: 0</title></rect><rect x="279.0" y="602.0" width="10.0" height="68.5" rx="2" fill="#43d8b0"><title>2026-07-20 · Adições: 44428</title></rect><rect x="279.0" y="670.5" width="10.0" height="33.3" rx="2" fill="#7867f2"><title>2026-07-20 · Remoções: 21599</title></rect><rect x="296.3" y="670.5" width="10.0" height="0.0" rx="2" fill="#43d8b0"><title>2026-07-21 · Adições: 0</title></rect><rect x="296.3" y="670.5" width="10.0" height="0.0" rx="2" fill="#7867f2"><title>2026-07-21 · Remoções: 0</title></rect><rect x="313.7" y="645.1" width="10.0" height="25.4" rx="2" fill="#43d8b0"><title>2026-07-22 · Adições: 16488</title></rect><rect x="313.7" y="670.5" width="10.0" height="4.7" rx="2" fill="#7867f2"><title>2026-07-22 · Remoções: 3035</title></rect><rect x="331.0" y="662.9" width="10.0" height="7.6" rx="2" fill="#43d8b0"><title>2026-07-23 · Adições: 4917</title></rect><rect x="331.0" y="670.5" width="10.0" height="2.0" rx="2" fill="#7867f2"><title>2026-07-23 · Remoções: 733</title></rect><rect x="348.3" y="662.2" width="10.0" height="8.3" rx="2" fill="#43d8b0"><title>2026-07-24 · Adições: 5356</title></rect><rect x="348.3" y="670.5" width="10.0" height="2.0" rx="2" fill="#7867f2"><title>2026-07-24 · Remoções: 894</title></rect><rect x="365.7" y="668.5" width="10.0" height="2.0" rx="2" fill="#43d8b0"><title>2026-07-25 · Adições: 165</title></rect><rect x="365.7" y="670.5" width="10.0" height="2.0" rx="2" fill="#7867f2"><title>2026-07-25 · Remoções: 50</title></rect><rect x="383.0" y="647.3" width="10.0" height="23.2" rx="2" fill="#43d8b0"><title>2026-07-26 · Adições: 15078</title></rect><rect x="383.0" y="670.5" width="10.0" height="2.3" rx="2" fill="#7867f2"><title>2026-07-26 · Remoções: 1485</title></rect><rect x="400.3" y="643.6" width="10.0" height="26.9" rx="2" fill="#43d8b0"><title>2026-07-27 · Adições: 17425</title></rect><rect x="400.3" y="670.5" width="10.0" height="4.1" rx="2" fill="#7867f2"><title>2026-07-27 · Remoções: 2664</title></rect><rect x="417.7" y="670.5" width="10.0" height="0.0" rx="2" fill="#43d8b0"><title>2026-07-28 · Adições: 0</title></rect><rect x="417.7" y="670.5" width="10.0" height="0.0" rx="2" fill="#7867f2"><title>2026-07-28 · Remoções: 0</title></rect><rect x="435.0" y="670.5" width="10.0" height="0.0" rx="2" fill="#43d8b0"><title>2026-07-29 · Adições: 0</title></rect><rect x="435.0" y="670.5" width="10.0" height="0.0" rx="2" fill="#7867f2"><title>2026-07-29 · Remoções: 0</title></rect><rect x="452.3" y="670.5" width="10.0" height="0.0" rx="2" fill="#43d8b0"><title>2026-07-30 · Adições: 0</title></rect><rect x="452.3" y="670.5" width="10.0" height="0.0" rx="2" fill="#7867f2"><title>2026-07-30 · Remoções: 0</title></rect><rect x="469.7" y="654.8" width="10.0" height="15.7" rx="2" fill="#43d8b0"><title>2026-07-31 · Adições: 10213</title></rect><rect x="469.7" y="670.5" width="10.0" height="6.9" rx="2" fill="#7867f2"><title>2026-07-31 · Remoções: 4444</title></rect><rect x="487.0" y="658.5" width="10.0" height="12.0" rx="2" fill="#43d8b0"><title>2026-08-01 · Adições: 7815</title></rect><rect x="487.0" y="670.5" width="10.0" height="2.0" rx="2" fill="#7867f2"><title>2026-08-01 · Remoções: 1222</title></rect><rect x="504.3" y="650.7" width="10.0" height="19.8" rx="2" fill="#43d8b0"><title>2026-08-02 · Adições: 12822</title></rect><rect x="504.3" y="670.5" width="10.0" height="4.3" rx="2" fill="#7867f2"><title>2026-08-02 · Remoções: 2768</title></rect><rect x="521.7" y="658.2" width="10.0" height="12.3" rx="2" fill="#43d8b0"><title>2026-08-03 · Adições: 7959</title></rect><rect x="521.7" y="670.5" width="10.0" height="2.0" rx="2" fill="#7867f2"><title>2026-08-03 · Remoções: 840</title></rect><rect x="539.0" y="670.5" width="10.0" height="0.0" rx="2" fill="#43d8b0"><title>2026-08-04 · Adições: 0</title></rect><rect x="539.0" y="670.5" width="10.0" height="0.0" rx="2" fill="#7867f2"><title>2026-08-04 · Remoções: 0</title></rect><rect x="556.3" y="670.5" width="10.0" height="0.0" rx="2" fill="#43d8b0"><title>2026-08-05 · Adições: 0</title></rect><rect x="556.3" y="670.5" width="10.0" height="0.0" rx="2" fill="#7867f2"><title>2026-08-05 · Remoções: 0</title></rect><text class="small faint" x="50.0" y="768" text-anchor="middle">7</text><text class="small faint" x="139.7" y="768" text-anchor="middle">12</text><text class="small faint" x="229.3" y="768" text-anchor="middle">17</text><text class="small faint" x="319.0" y="768" text-anchor="middle">22</text><text class="small faint" x="408.6" y="768" text-anchor="middle">27</text><text class="small faint" x="498.3" y="768" text-anchor="middle">1</text><text class="small faint" x="570.0" y="768" text-anchor="middle">5</text></g><g><rect class="surface" x="608" y="522" width="564" height="270" rx="19"/><text class="chart-title ink" x="630" y="556">Fluxo das pull requests</text><text class="chart-subtitle muted" x="630" y="576">Mediana por dia de integração</text><text class="small muted" x="1150" y="556" text-anchor="end">5,4 h</text><line class="grid" x1="630" y1="598.0" x2="1150" y2="598.0"/><line class="grid" x1="630" y1="646.3" x2="1150" y2="646.3"/><line class="grid" x1="630" y1="694.7" x2="1150" y2="694.7"/><line class="grid" x1="630" y1="743.0" x2="1150" y2="743.0"/><line x1="630" y1="730.8" x2="1150" y2="730.8" stroke="#f4a261" stroke-dasharray="5 5"/><rect class="track" x="633.7" y="741.5" width="10.0" height="1.5"/><rect class="track" x="651.0" y="741.5" width="10.0" height="1.5"/><rect class="track" x="668.3" y="741.5" width="10.0" height="1.5"/><rect class="track" x="685.7" y="741.5" width="10.0" height="1.5"/><rect class="track" x="703.0" y="741.5" width="10.0" height="1.5"/><rect x="720.3" y="740.0" width="10.0" height="3.0" rx="3" fill="#4aa8ff"><title>2026-07-12 · Mediana até à integração: &lt;1 h</title></rect><rect x="737.7" y="740.0" width="10.0" height="3.0" rx="3" fill="#4aa8ff"><title>2026-07-13 · Mediana até à integração: &lt;1 h</title></rect><rect x="755.0" y="738.8" width="10.0" height="4.2" rx="3" fill="#4aa8ff"><title>2026-07-14 · Mediana até à integração: 1,8 h</title></rect><rect x="772.3" y="740.0" width="10.0" height="3.0" rx="3" fill="#4aa8ff"><title>2026-07-15 · Mediana até à integração: &lt;1 h</title></rect><rect class="track" x="789.7" y="741.5" width="10.0" height="1.5"/><rect class="track" x="807.0" y="741.5" width="10.0" height="1.5"/><rect class="track" x="824.3" y="741.5" width="10.0" height="1.5"/><rect class="track" x="841.7" y="741.5" width="10.0" height="1.5"/><rect x="859.0" y="720.4" width="10.0" height="22.6" rx="3" fill="#4aa8ff"><title>2026-07-20 · Mediana até à integração: 10 h</title></rect><rect class="track" x="876.3" y="741.5" width="10.0" height="1.5"/><rect x="893.7" y="686.2" width="10.0" height="56.8" rx="3" fill="#4aa8ff"><title>2026-07-22 · Mediana até à integração: 25 h</title></rect><rect x="911.0" y="740.0" width="10.0" height="3.0" rx="3" fill="#4aa8ff"><title>2026-07-23 · Mediana até à integração: &lt;1 h</title></rect><rect x="928.3" y="690.1" width="10.0" height="52.9" rx="3" fill="#4aa8ff"><title>2026-07-24 · Mediana até à integração: 23 h</title></rect><rect x="945.7" y="729.2" width="10.0" height="13.8" rx="3" fill="#4aa8ff"><title>2026-07-25 · Mediana até à integração: 6,1 h</title></rect><rect x="963.0" y="703.4" width="10.0" height="39.6" rx="3" fill="#4aa8ff"><title>2026-07-26 · Mediana até à integração: 18 h</title></rect><rect x="980.3" y="716.8" width="10.0" height="26.2" rx="3" fill="#4aa8ff"><title>2026-07-27 · Mediana até à integração: 12 h</title></rect><rect class="track" x="997.7" y="741.5" width="10.0" height="1.5"/><rect class="track" x="1015.0" y="741.5" width="10.0" height="1.5"/><rect class="track" x="1032.3" y="741.5" width="10.0" height="1.5"/><rect x="1049.7" y="598.0" width="10.0" height="145.0" rx="3" fill="#4aa8ff"><title>2026-07-31 · Mediana até à integração: 2,7 d</title></rect><rect x="1067.0" y="705.7" width="10.0" height="37.3" rx="3" fill="#4aa8ff"><title>2026-08-01 · Mediana até à integração: 16 h</title></rect><rect x="1084.3" y="713.2" width="10.0" height="29.8" rx="3" fill="#4aa8ff"><title>2026-08-02 · Mediana até à integração: 13 h</title></rect><rect x="1101.7" y="731.5" width="10.0" height="11.5" rx="3" fill="#4aa8ff"><title>2026-08-03 · Mediana até à integração: 5,1 h</title></rect><rect class="track" x="1119.0" y="741.5" width="10.0" height="1.5"/><rect class="track" x="1136.3" y="741.5" width="10.0" height="1.5"/><text class="small faint" x="630.0" y="768" text-anchor="middle">7</text><text class="small faint" x="719.7" y="768" text-anchor="middle">12</text><text class="small faint" x="809.3" y="768" text-anchor="middle">17</text><text class="small faint" x="899.0" y="768" text-anchor="middle">22</text><text class="small faint" x="988.6" y="768" text-anchor="middle">27</text><text class="small faint" x="1078.3" y="768" text-anchor="middle">1</text><text class="small faint" x="1150.0" y="768" text-anchor="middle">5</text></g><text class="small faint" x="28" y="831">Gerado pelo GitHub Actions · os totais incluem automação · bots não contam como colaboradores</text></svg>
